<?xml version="1.0" encoding="UTF-8"?>
<svg version="1.1" viewBox="0 0 2048 752" width="1280" height="1280" xmlns="http://www.w3.org/2000/svg">
<path transform="translate(0)" d="m0 0h2048v752h-2048z" fill="#FDFDFD"/>
<path transform="translate(220,138)" d="m0 0 4 1 5 3 4 4 4 8 4 4h2l6-8 11-6h3l-1 5h-2l1 5-5 8 20 2 3 1v2l-9 7-1 3 1 4h2l5 9 1 9-3 3-5-4-4-3-8-2-5 4-6 3-1 5 3 3 2 1v2l4 1 13 14 3 1 4-5h2l1-8v-8l3 1 2 2 7 2 4 2v-8l-1-4 4-6 7-5 5 1 4 4 5 3 4 8 4 11v8l-1 1v5l6 5-2 4 5-2 7 1 3-2h6l-1-4 3-1 4 7 3 1 2-6-2-1 4 1 10 9 6 11 3 6v5l-6 7-1 10 1 9-5 7-1 3 5 1 3 6 4-2 10-7 6-1h10l2 4 4 2 1 2v15l-3 8-1 9v17l3 9 1 8v12l-5 6 4 4v7l-6 12-4-1-3-12-6-5-6-3-6-5 1 10 6 11 7 6v5l-1 5 2 6-1 5 7 10-1 5-5 9-2 3h-3l-2-8h-2l-2 6-5 4-1 9-1 2h-2l-1-2v-8l2-3h2l-3-5-4 5-8 1-4 16h-6l-2-2 5-2 1-2 1-11-1-5-7-1v10l-3 7-3 1-4-3 5-3 3-12 2-3 6-1-1-5-4-1-1 2-4-1 1-3 4-1 2-7 7-1 8-1 1-5-4-8-4-5-8-7v-2l-4-2-3-5-1-7-2-5v14l-1 1v12l3 8 6 4v6h-4l-6-7-1-4-7 5-4-1-4-5-5-13-3-9-3-10 1-8 1-1 1-18 2-3 8-2 10-1-3-5-5-3-5-8-4 1-5 4-1 3 7 1-5 5h-2l-2 4-1 5-5-2-2 5-3 4-4-2-6-4-2 14-6 18-7 13-8 11-7 8-4 3h-2v2l-9 5-6 2h-14l-9-3-2-1v-2l-5-2-7-6-7-8-7-10-9-17-6-18v-2l-7-1-4 3-6 14-3 9-5 8-1 6h20l3 2v9l-9 6-7 3-8 4h-3l-3-1 1 6-9 3h-8l-2-4-12-3 5 9v3l4 2-1 4h-5v5l-1-2-8 6-3 3-1 9-4 5-6 1-7-3-5-7 2-4 3-4 2-6-5 2-3 8-2-2-3-8-3-2-2-4v-6l4-4v-25l5-7 5-3 2-10 1-6-5 2-12 7-2 10 3 5-4-1-7-7-2-4v-17l-3-4 1-13 4-17-1-13-3-16-1-3v-10l4-8 1-1h15l8 3 9 3h5l-3-6-1-9 2-11 1-4-2-5-4-2-2-2v-7l5-6 4-10 8-8 5-1 3 3v2l2-1 1-4 4 1 2 1v-2l5 2 9 5 1-3 7-5 2-16 4-13 10-10 4-3 5 1v2h-2l1 2 7 4 2 4-2 6 6 1 9-1 3 2 1 9 3 8-3 3-6 2-2 5v5l11-1 9-7 1-3-2-9 2-5h2v-2l4-2 3-3 11-7-2-4-8-4-10-3-9 1-9 3-3-6 10-11-1-5-12-10v-2h18v-4h-2v-2l-3-1-1-5 4-1 10 3 6 3 4 6 3 1-1-10-3-15z" fill="#791E20"/>
<path transform="translate(810,156)" d="m0 0h104l27 2 15 4 17 7 13 10 7 7 9 13 8 20 3 23v20l-4 20-4 10-7 11-9 10-11 9h-2v3l6 1 8 5 9 9 7 11 7 14 5 19 2 10v27l-5 25-8 19-7 10-9 10-9 8-15 9-14 5-12 3-2 1-14 1h-89l-23-1-4-3-1-3v-345z" fill="#040303"/>
<path transform="translate(1152,240)" d="m0 0h43l15 4 12 5 16 10 8 6 8 9 10 16 7 14 7 23 1 15 2 5v61l-2 8-1 14-9 27-8 14-11 13-5 6-14 11-5 4-10 3v2l-2 1-10 1-6 3-8 1-5 1h-14l-16-2-18-5-17-8-12-9-8-8-9-13-8-14-6-16-5-21-1-7v-74l5-23 5-15 9-17 9-12 14-14 15-10 15-6z" fill="#050404"/>
<path transform="translate(604,152)" d="m0 0h34l14 1 20 6 16 8 11 8 10 9 10 14 8 15 6 18 4 20v12l-5 5-2 1-46 1-2-2-3-18-4-15-4-9-4-6-4-5-10-7-13-6-28-1-8 2-13 5-11 8-8 11-4 8-4 12-5 38-1 14v76l2 17 1 6 1 13 5 11 3 9 8 13 9 9 13 8 10 3 4-1v2l18 1 15-2 16-4 10-6 8-7 1-68h-53l-9-3-2-4v-37l4-7 41-1h67l6 5v135l-7 8-15 15-10 7-19 10-16 5-29 5h-21l-15-2-19-4-18-8-14-9-13-12-7-8-7-9-11-21-7-19-5-23-1-16v-92l1-29 5-26 7-21 10-19 7-9 12-13 12-9 12-7 21-7z" fill="#050404"/>
<path transform="translate(1420,152)" d="m0 0h33l17 3 19 7 14 8 13 10 8 10 11 18 6 14 4 14 1 11v17l-5 3h-48l-2-7-3-26h-2l-5-12-3-4v-2l-3-1v-2l-4-2-10-6-9-3-11-1h-10l-14 3-11 6-6 5-5 6-2 6-2 17v12l2 14 9 10 9 8 14 8 13 6 28 10 29 14 11 7 13 12 11 12 8 13 6 16 3 22v19l-2 18-7 19-9 14-6 7-8 7-10 8-16 8-15 5-14 3-9 1h-21l-14-2-21-6-17-8-14-10-10-9-8-8-7-10-10-21-5-20-1-9v-9l6-7h44l7 6 1 2v15l2 9 7 13 6 8 5 4 10 6 19 5h7l-1-3 4 2 3 1 16-3 10-3 9-7 8-11 4-11 1-9v-9l-3-12-4-12-5-6-13-8-16-8-38-15-21-10-20-13-15-14-8-10-9-16-6-20v-36l6-21 8-15 7-9 13-13 10-8 15-8 15-5z" fill="#050404"/>
<path transform="translate(350,232)" d="m0 0h2l4 7 3 1 2-6-2-1 4 1 10 9 6 11 3 6v5l-6 7-1 10 1 9-5 7-1 3 5 1 3 6 4-2 10-7 6-1h10l2 4 4 2 1 2v15l-3 8-1 9v17l3 9 1 8v12l-5 6 4 4v7l-6 12-4-1-3-12-6-5-6-3-6-5 1 10 6 11 7 6v5l-1 5 2 6-1 5 7 10-1 5-5 9-2 3h-3l-2-8h-2l-2 6-5 4-1 9-1 2h-2l-1-2v-8l2-3h2l-3-5-4 5-8 1-4 16h-6l-2-2 5-2 1-2 1-11-1-5-7-1v10l-3 7-3 1-4-3 5-3 3-12 2-3 6-1-1-5-4-1-1 2-4-1 1-3 4-1 2-7 7-1 8-1 1-5-4-8-4-5-8-7v-2l-4-2-3-5-1-7-2-5v14l-1 1v12l3 8 6 4v6h-4l-6-7-1-4-7 5-4-1-4-5-5-13-3-9-3-10 1-8 1-1 1-18 2-3 8-2 10-1-3-5-5-3-5-8-4 1-5 4-1 3 7 1-5 5h-2l-2 4-1 5-5-2-2 5-3 4-4-2-6-5-1-28-1 16-2-1-1-45 3 1 1 2 3 1v-11l2-7-2-3h13l-1-7h-2v-4l3-2 4-10 4-1v-2l6-3 2-9 2-8 5-1 2-3 7 1 3-2h6l-1-4z" fill="#791D20"/>
<path transform="translate(1167,288)" d="m0 0h15l12 3 11 8 7 9 6 12 4 12 4 23v48l-4 26-6 16-9 11-9 8-12 4-5 1h-10l-12-3-9-6-12-12-7-14-5-19-2-13v-49l3-17 5-17 6-10 6-8 9-8 9-4z" fill="#FDFDFD"/>
<path transform="translate(238,306)" d="m0 0h51l1 1v20l-1 24-3 20-5 16-8 16-8 11-12 11-10 6-8 1-9-2-11-7-10-10-8-11-7-15-5-16-3-15-2-18v-29l1-2z" fill="#103267"/>
<path transform="translate(304,190)" d="m0 0 5 1 4 4 5 3 4 8 4 11v8l-1 1v5l6 5-2 4 4 1-2 2h-3l-2 7-2 9-5 3h-2v2l-4 2-3 9-4 2v4h2l1 7-12 1 2 4-2 5v8l-1 3-4-1-1-2-53 1h-57v31l3 24 5 19 6 15 5 9 9 11 10 9 10 5 10 1 8-3 9-7 10-9 10-16 6-14 4-16 2-15 1-24h1l1 23 1-15 2-1 1 30-2 9-6 21-8 15-8 11-7 8-4 3h-2v2l-9 5-6 2h-14l-9-3-2-1v-2l-5-2-7-6-7-8-7-10-9-17-6-18v-2l-7-1-5 3-3-5-1-3h-2v-2l-4-2-3-6-3-2 1-5 2 1h1l3-1 7 7v3h2l1 2 8 1v-2h2l2-8v-15l-1-13-3-1-2-2-5-3 1-16h2l1-4 5-7 29-1 10-2-3-8-3-7-5-5-17-1v-1l7-1 6 1-4-5-2-2-1-7 4-4 7-3 9-7h8l3 5 5-1 5 8 5 3 2 2v4l3 1h-2l-1 6 9-1v3l6 7v2l3-2 3-9 3-3 7-1 8 1 9-3 2-10 1-1v-10l-6-3h-2l-2 6-1 1-7-1-3-2-1-7-4-4-4-5 1-2 7 6 5-5h2l1-8v-8l3 1 2 2 7 2 4 2v-8l-1-4 4-6z" fill="#225530"/>
<path transform="translate(864,351)" d="m0 0h61l15 4 10 6 6 8 5 11 3 19v16l-3 16-8 16-9 8-12 5-12 2-55 1-2-2v-109z" fill="#FEFEFE"/>
<path transform="translate(865,206)" d="m0 0h58l12 2 10 6 6 7 4 10 1 3v36l-7 14-7 9-6 4-5 3-9 1-20 1h-38l-1-3v-91z" fill="#FDFDFD"/>
<path transform="translate(1760,201)" d="m0 0h30l22 6 16 8 11 7 9 7 9 9 14 19 11 19 9 17 9 25 1 6-5-5-13-22-11-13-15-15-11-9-13-8-20-9-26-5h-9l-24 3-19 7-12 6-4 3h-2v2l-8 6-10 9-7 8-7 7-11 15-7 11-9 18h-2l1-10 7-20 10-23 9-16 11-17 7-8 15-15 17-11 14-6 12-5z" fill="#E41A1D"/>
<path transform="translate(220,138)" d="m0 0 4 1 5 3 4 4 4 8 4 4h2l6-8 11-6h3l-1 5h-2l1 5-5 8 20 2 3 1v2l-9 7-1 3 1 4h2l5 9 1 9-3 3-5-4-4-3-8-2-5 4-6 3-1 5 3 3 2 1v2l4 1 7 8 3 5 3 4v2l3 1 1 7 4 2h5l3-8 9 5v10l-2 3-1 8-5 3-10 1-7-1-5 1-3 11-1 2h-3l-8-10-3-1-2 1-3-3 2-4-3-6-8-6-2-5-5 1-3-5h-8l-10 8-8 3-1 5 2 5 4 4v2l-18 1-2-6v-7l1-4-3-1v-6l4-6 3-3h2v11l11-1 9-7 1-3-2-9 2-5h2v-2l4-2 3-3 11-7-2-4-8-4-10-3-9 1-9 3-3-6 10-11-1-5-12-10v-2h18v-4h-2v-2l-3-1-1-5 4-1 10 3 6 3 4 6 3 1-1-10-3-15z" fill="#1C5628"/>
<path transform="translate(1680,243)" d="m0 0 1 4-10 16-6 10-8 19-5 16-2 14v31l3 16 4 12 8 16 10 13 9 10 11 9 14 8 16 7 19 6 39 8 7 1-3 2-13 2-17 1h-32l-17-3-19-5-15-6-16-9-10-8-10-10-7-10-5-8-5-15-3-16-1-7v-8l4-22 5-16 5-12 10-18 10-14 10-13 5-6h2l2-4z" fill="#499A1D"/>
<path transform="translate(1845,272)" d="m0 0 4 2 11 14 11 16 9 16 8 15 8 21 4 14 2 14v24l-4 19-6 14-7 11-7 9-8 8-17 11-14 6-24 6-14 2h-19l-34-4-10-2-19-5v-3h47l19-3 17-5 21-10 15-11 10-10 12-18 5-10 6-19 2-12v-32l-3-19-5-17-7-16-9-17-4-7z" fill="#0A1AB3"/>
<path transform="translate(1035,555)" d="m0 0h9l4 6 20 62 5 17 3 8-1 3-2 1h-8l-4-1-5-18-1-6h-28l-3 3-3 10-2 10-1 1h-16l-52 1-1-1-1-33v-62h53l1 2-2 10h-37v27h33v13l-1 1h-32l1 28 43 1 5-16 11-35 7-22z" fill="#0C0B0B"/>
<path transform="translate(1204,554)" d="m0 0h10l13 3 8 7 6 12 2 8v39l-4 12-9 10-9 6-4 2h-13l-9-4-8-6-6-9-4-11-1-6v-28l3-14 6-11 7-6 7-3z" fill="#0B0A0A"/>
<path transform="translate(449,555)" d="m0 0h18l3 5 6 21 8 25 5 17 1 1 6-16 14-43 3-9 1-1h13l3 1 1 42v53l-5 1-10-1-1-54-8 23-6 16-5 16h-8l-5-3-7-20-8-26-2-6h-2v54l-14 1-1-1-1-22v-64z" fill="#636367"/>
<path transform="translate(743,556)" d="m0 0h41l5 3 7 9 2 7v13l-3 6-2 2v6l6 10 2 11-1 10-4 8-8 7-10 3h-35z" fill="#0B0A0A"/>
<path transform="translate(545,556)" d="m0 0h38l7 3 6 5 4 10 1 8-3 10-4 5 1 6 4 8 1 3v20l-4 8-7 6-8 3-19 1h-16l-1-28z" fill="#77787A"/>
<path transform="translate(1834,289)" d="m0 0h1l-1 124h-42v-104l16-8z" fill="#050405"/>
<path transform="translate(882,556)" d="m0 0h42l6 4 6 8 2 5 1 6v11l-3 9-9 10 1 7 12 27 2 8-5 1-9-1-4-5-11-26-1-4-16-2 1 37-1 1h-11l-3-1z" fill="#090808"/>
<path transform="translate(304,190)" d="m0 0 5 1 4 4 5 3 4 8 4 11v8l-1 1v5l6 5-2 4 4 1-2 2h-3l-2 7-2 9-5 3h-2v2l-4 2-3 9-4 2v4h2l1 7h-35l-1-3 2-3-1-5-6-4v-2l-3-1-1-7 4-2 12 1 9-3 2-10 1-1v-10l-6-3h-2l-2 6-1 1-7-1-3-2-1-7-4-4-4-5 1-2 7 6 5-5h2l1-8v-8l3 1 2 2 7 2 4 2v-8l-1-4 4-6z" fill="#CEA75B"/>
<path transform="translate(165,191)" d="m0 0 5 1v2h-2l1 2 7 4 2 4-2 6 6 1 9-1 3 2 1 9 3 8-3 3-6 2-2 2v-3l-6 5-2 4v6l2 1v11l1 6h22l5 4 3 5 3 12-3 1-28 1-14 1-2 1v-2l-4-1-1-6-1-5-6-12 1-6-5 1-6-5-4-5-1-6-4-2 1-4 7-5 2-16 4-13 10-10z" fill="#CEA75C"/>
<path transform="translate(220,138)" d="m0 0 4 1 5 3 4 4 4 8 4 4h2l6-8 11-6h3l-1 5h-2l1 5-5 8 20 2 3 1v2l-9 7-1 3 1 4h2l5 9 1 9-3 3-5-4-4-3-8-2-5 4-6 3-1 5 3 3 2 1v2l4 1 5 5-1 2-5-3-8-5-2-4 1-7h-18l-13-4-6-2-9 1-9 3-3-6 10-11-1-5-12-10v-2h18v-4h-2v-2l-3-1-1-5 4-1 10 3 6 3 4 6 3 1-1-10-3-15z" fill="#1A5628"/>
<path transform="translate(136,556)" d="m0 0h15l1 2v36h31l1-38h16v95h-16v-42l-33 1-1 42h-14z" fill="#77787A"/>
<path transform="translate(323,554)" d="m0 0h19l9 4 7 8 4 8 2 6v6l-11 1-5-5-6-10-5-4-7-1-8 5-4 6-2 9v32l4 13 6 5 6 1h8l6-3 2-3v-15l-4-2h-11l-2-7v-5l1-1 7-1 21-1 3 1 1 5v29l-3 7-6 5-11 5-6 1h-9l-9-3-8-5-8-9-4-12-1-8v-21l2-19 5-10 5-6z" fill="#636367"/>
<path transform="translate(1779,315)" d="m0 0h1v98h-39v-79l15-8z" fill="#070606"/>
<path transform="translate(238,306)" d="m0 0h51l1 1v20l-1 24-3 20-5 16-8 16-8 11-12 11-10 6-8 1-9-2-11-7-10-10-8-11-7-15-5-16-3-15-2-18v-29l1-2zm-25 9-22 1v32l2 18 6 22 6 12 6 8 10 10 10 5 6 1 8-3 9-7 9-10 8-15 5-16 2-13 2-28v-9l-1-8z" fill="#FEFEFE"/>
<path transform="translate(402,554)" d="m0 0 4 2h2l4-1 3 7 6 20 12 38 5 16 4 13v3l-11 1-4-1-9-27-6 1h-17l-3-1-3 10-4 13-2 4-7 1-6-2v-7l23-72 7-17z" fill="#636367"/>
<path transform="translate(217,322)" d="m0 0 6 1 4 1 3 23 7-1 1-5 5-10 7-6 3-1h8l6 3v2h2l4 10 3-3 3 6v9l-2 18-4 15-8 17-5 6-5 2-1-7-16-32-2-6h-2l-2 7h-2l-2 5-11 22-5 2-1-4 10-19 7-12 3-4-2-10-3-5-3-3v-8l-12 6-2 6-9-1-3-4v-3l-4-2v-3l6-3 10-1v-3l7-2z" fill="#123366"/>
<path transform="translate(669,555)" d="m0 0 9 1 3 2 6 21 19 60 3 10v3h-15l-8-24-1-2-26-1-3 11-5 15h-13l1-10 16-54 9-26 3-5z" fill="#646367"/>
<path transform="translate(808,556)" d="m0 0h15l2 1v66l2 9 4 5 13 2 7-3 2-4 1-7v-69h17v18l-1 56-3 10-5 6-10 5-7 2h-12l-10-4-8-7-5-9-2-12z" fill="#0B0A09"/>
<path transform="translate(1488,556)" d="m0 0h11l4 4 8 24 14 43 6 22v3l-13-1-3-2-4-21-1-1h-30l-2 11-5 12-2 2h-11l-1-1 1-7 5-14 7-22 8-26 5-16 2-9z" fill="#0D0C0C"/>
<path transform="translate(213,237)" d="m0 0h8l3 5 5-1 5 8 5 3 2 2v4l3 1h-2l-1 6 9-1v3l6 7v2l3-2 3-9 2-2 2 5v2l6 5 4 3-1 5-1 4 22 1 3 3-2 7v8l-1 3-4-1-1-2h-6l-8-4-1-3h2l-2-9h-23l-13 3-9 1v-2h-2v2l-5 2-9 2-1-1-3 4-7-1 1-4-10-3-1-3 11-1 10-2-3-8-3-7-5-5-17-1v-1l7-1 6 1-4-5-2-2-1-7 4-4 7-3z" fill="#474648"/>
<path transform="translate(1647,554)" d="m0 0h11l9 3 7 6 6 10 2 5v5l-10 5-4-2-5-12-5-6-5-2-9 2-4 5-1 3v9l3 5 6 4h5v2l4 1 16 7 6 9 3 9v9l-4 8-5 6-9 6-6 2h-13l-10-5-9-8-5-8v-9l3-2h7l5 2 2 4 2 9 2 1 15 1 6-3 2-4v-11l-5-5-10-5-12-5-8-6-4-5-4-7v-12l6-12 7-6z" fill="#0C0B0B"/>
<path transform="translate(213,556)" d="m0 0h54l-1 12-1 1h-36l1 24 31 1v15l-32 1v27l37 1v13l-22 1h-30l-1-2z" fill="#626266"/>
<path transform="translate(1080,556)" d="m0 0h15v71l3 9 4 2h12l8-4 2-3 1-75h13l3 1v64l-2 13-8 11-9 6-7 2h-10l-12-4-8-6-3-7-1-5z" fill="#0D0C0C"/>
<path transform="translate(1363,554)" d="m0 0h11l11 4 7 8 5 10 1 1v6l-13 5-6-16-5-4-5-2-7 1-6 5-2 5 1 9 4 5 19 8 10 4 6 8 3 8v13l-4 8-9 8-8 4-3 1h-11l-12-6-7-7-5-10-1-7 1-1h16v11l4 4 7 1h9l6-3 2-4v-10l-1-4-5-2-12-6-12-5-7-6-6-10v-13l6-12 7-6 5-2z" fill="#0C0B0B"/>
<path transform="translate(1876,554)" d="m0 0h12l10 3 6 5 5 9 1 2v10l-2 3h-8l-5-8-4-8-5-3-7-1-6 3-3 4-1 3v7l3 6 8 5 17 6 10 9 3 6 1 4v11l-2 8-4 6-8 6-8 3h-12l-10-4-10-9-4-7v-10l3-3h6l3 3 6 12 2 2 9 1h8l4-2 2-8-1-10-2-3-24-10-8-5-4-5-3-12v-7l4-10 7-8z" fill="#0D0C0C"/>
<path transform="translate(948,556)" d="m0 0h53l1 2-2 10h-37v27h33v13l-1 1h-32l1 28 35 1 1 3-1 6 1 3-36 1-14 1-1-1-1-33z" fill="#0B0A0A"/>
<path transform="translate(324,339)" d="m0 0 4 1 4 6v2l5 2 4 5-1 2-15 2-3 1-1 2-1 18-1 1-1 9 3 9 4 11 5 13 3 3 5-1 3-3h2l1-2 2 8 5 5h2v-6l-6-4-3-8v-12l1-4v-12l2 1 2 5 1 7 4 6 5 5 6 5 6 8 2 5-1 5-1 1-15 1-1 7-1 1-10-1-3-4h-4l2 6 3 1v2l6 2-1 5-3 1-1-5-2 1-1 7h1l-1 10-4-2 1-9-4 2-2 3h-2v-3l5-5 3-4 1-5-4-3-9-4-3-2-4 2-5-6-7-6-5-3v-2l-5-2-2-1 1-4 8-6h7l6 2-9-25-5-14v-2l4-4 3-5 4 1 1-4 5-5 4-3-6-2 1-4z" fill="#CBA55D"/>
<path transform="translate(1728,340)" d="m0 0h1v21l-1 52h-42v-52l8-5 21-10z" fill="#050404"/>
<path transform="translate(1764,138)" d="m0 0h11l12 6 7 7 4 9 1 11-4 11-9 10-9 4-13 1-4-1-10-6-6-8-3-10v-13l4-8 9-9z" fill="#D11519"/>
<path transform="translate(1807,554)" d="m0 0h17l9 3 5 4 6 11 1 4v10l-3 2h-10l-2-2-1-12-4-5-7-3-8 1-8 7-4 13-1 11v15l2 10 5 13 10 2h7l7-3 2-5 1-10 1-2 7-1 6 2v13l-7 11-8 6-9 4h-12l-10-5-5-4-7-10-3-9-1-6v-31l3-14 5-10 8-7z" fill="#0D0B0B"/>
<path transform="translate(1595,402)" d="m0 0h12l9 3 8 7 5 8 2 4 1 12-5 9-7 8-8 5-5 1h-11l-9-4-8-7-4-6-3-10 1-10 6-10 8-7z" fill="#48991E"/>
<path transform="translate(1916,431)" d="m0 0h10l10 5 5 4 7 11 1 3v14l-7 11-7 6-10 4h-9l-10-4-9-8-4-9-1-4v-8l4-12 5-5 5-4z" fill="#0919B3"/>
<path transform="translate(1254,556)" d="m0 0h51l1 1v10l-1 1h-36l1 28h31v13l-2 1h-29l-1 41-3 1h-10l-1-1-1-9z" fill="#0C0B0B"/>
<path transform="translate(147,340)" d="m0 0h5l3 5-1 3-4 1-1 4 4 2 4 7 2 1v2h2l4 5v6l-5 11-3 9-5 8-1 6h20l3 2v9l-9 6-7 3-8 4h-3l-3-1 1 6-9 3h-8l-2-4-12-3-1 2v-2h-15l-1-3 9-16 12-13 4-8-2-6 5 1 1 6-3 8-4 5h-2v7h2l2 3 5 3 8 5h1l1-8 4-9 10-21 4-9h-2l-1-10h2l-2-5-6-5-15-4v-4l8-5h2l2-4z" fill="#CCA660"/>
<path transform="translate(1204,567)" d="m0 0h10l8 5 4 8 2 6v33l-4 13-5 6-5 2-8-1-7-4-5-8-3-10v-23l3-15 4-8z" fill="#FDFDFD"/>
<path transform="translate(1524,556)" d="m0 0h65v8l-1 4h-25v83l-2 1h-12l-1-1-1-83h-23z" fill="#111011"/>
<path transform="translate(65,556)" d="m0 0h63v8l-1 3-2 1h-21v27l-1 56-14 1-1-31-1-52-22-1z" fill="#616165"/>
<path transform="translate(1682,556)" d="m0 0h66v8l-2 5h-22l-1 81-1 2h-12l-1-1-1-83-8 1h-14l-4-5-1-7z" fill="#0C0B0B"/>
<path transform="translate(1399,556)" d="m0 0h64v7l-2 6-21-1-1 83-1 1h-12l-1-82-21-1-3-1-2-5z" fill="#0F0E0F"/>
<path transform="translate(244,217)" d="m0 0 5 2 6 5 4 2 2 3 7 4v-2l3 1 1 7 4 2h5l3-8 9 5v10l-2 3-1 8-5 3-10 1-7-1-5 1-3 11-1 2h-3l-8-10-3-1-2 1-3-3 2-4-3-6-8-6v-8l8-5 10-3v-2l-3-1-3-7z" fill="#0B2F65"/>
<path transform="translate(449,555)" d="m0 0h18l3 5 6 21 3 9v5l-2-2-5-12-8-4-5-4h-3v5l-1 4 1 6 7 5 1 3v55l-14 1-1-1-1-22v-64z" fill="#646366"/>
<path transform="translate(545,556)" d="m0 0h38l7 3 6 5 4 10 1 8-3 10-4 3-9 1-2-6 1-4v-12l-5-5-4-2-19-2h-3l-1 9 1 57 1 12-2 8h-5l-1-5-1-22z" fill="#676566"/>
<path transform="translate(514,555)" d="m0 0h13l3 1 1 42v53l-5 1-10-1v-16l1-7 1-41 1-25-2 2-5 16-1 6h-2l1 3-1 4h-2v2h-5l-1 2 1-7 10-32z" fill="#626266"/>
<path transform="translate(1595,556)" d="m0 0h15v96h-11l-4-2z" fill="#0B0A09"/>
<path transform="translate(403,566)" d="m0 0 2 2 2-2-1 14 2 3 8 30 1 5h-17l-6 1-2 6-3 10-4 13-2 4-7 1-6-2v-7l2-3 2-1 3-7 3-10 2-5v-6l2-3h2l2-6 2-12 4-8 4-10z" fill="#636366"/>
<path transform="translate(253,289)" d="m0 0h23l2 7v3h-2l2 3 7 3v1l-47 1h-57l-1 8-2-1-1 2-4-1 2-1-1-4-4-2 8-2 2-7h3l-2-4h2v-2l5-1 1-2h5l1 2 8 3 2 1v2l2 1 1 1 4-1 2-3 2 1 13-3v-2h2v2l17-4z" fill="#155226"/>
<path transform="translate(1680,243)" d="m0 0 1 4-10 16-6 10-8 19-5 16-2 14v31l3 16 4 12 8 16 10 13 9 10 11 9 14 8 16 7 9 3v2l-16-2-12-5-13-8-6-5-9-11-7-7-8-12-5-7-5-13-5-15-2-4-1-24 2-16v-10l-1-9h-2l-1 3-4 4-9 14-6 14-2 7h-1l1-10 6-18 11-21 11-16 11-14 5-6h2l2-4z" fill="#185428"/>
<path transform="translate(612,556)" d="m0 0h15l1 5-1 90-1 1h-13v-74z" fill="#616165"/>
<path transform="translate(398,298)" d="m0 0h10l2 4 2 1-4 4h-5v20l-3 4-6 2h-6l-2 4-5 7 2 9 3 4 1 8-5-3-5-10-2-10 2-4 8-5 1-1-14-2v-2h-2v4l-3-1-4-11 1-6 4-10 3-1 2-2 4 4 1 3 4-2 10-7z" fill="#792123"/>
<path transform="translate(1756,556)" d="m0 0h14v95l-1 1h-10l-3-1z" fill="#0D0C0C"/>
<path transform="translate(213,315)" d="m0 0h66l1 8v9l-1 10-4-5-2 3-4-9v-2h-2l-3-3-3-1h-8l-6 3-6 8-4 10-7 1-2-9-2-12 1-2-10-1-4 4h-4v3l-4 1-2-4-4-3v-3l-5-1-1-1-1 18h-1v-21z" fill="#273D61"/>
<path transform="translate(176,290)" d="m0 0h13l-1 3h-5v4 2h-3l1 3h-2v5l-7 1 4 3-1 4 2 1 1-3 2 2 1 23 3 24 5 19 6 15 3 7 2 5 9 11 2 5-5 2-7-8-7-10-9-17-6-18v-2l-7-1-5 3-3-5-1-3h-2v-2l-4-2-3-6-3-2 1-5 2 1h1l3-1 7 7v3h2l1 2 8 1v-2h2l2-8v-15l-1-13-3-1-2-2-5-3 1-16h2l1-4z" fill="#474A48"/>
<path transform="translate(217,322)" d="m0 0 6 1 4 1 3 23 7-1 1-5 5-10 7-6 3-1h8l6 3 1 4-7-1-8-2-5 2v2l-4 4-3 8-2 4-2 5-3 3v2h2v-2h3l2 8 1 5 4 4 1 5h2l5 11 3 6-1 6h-3l-13-27-4-8v-2h-2l-2 7h-2l-2 5-11 22-5 2-1-4 10-19 7-12 3-4-2-10-3-5-3-3v-8l-12 6-2 6-9-1-3-4v-3l-4-2v-3l6-3 10-1v-3l7-2z" fill="#CCA65E"/>
<path transform="translate(411,303)" d="m0 0 3 1 1 2v15l-3 8-1 9v17l3 9 1 8v12l-5 6 4 4v7l-6 12-4-1-3-12-5-4v-2l3-2h3v-3h-2l-1 2-1-2 3-9 2-1-2-16-1-5 1-3 1-11 1-3 1-5 1-2h2l-1-6-3-6v-15l8-2z" fill="#5F191E"/>
<path transform="translate(265,562)" d="m0 0h1v6l-1 1h-36l1 24 31 1v15l-32 1-1 15h-1v-7l-2-1 1-2-2-6-3-18-1-21 2-5 2-1 12-1 28 1z" fill="#77787A"/>
<path transform="translate(357,600)" d="m0 0 6 1 1 5v29l-2-2-3 2h-5l-6 7-11 4-6 1 2 4-9-1-5-2 3-1 3 1-2-7h-2l-5-9 1-2 9 7 6 1h8l6-3 2-3v-15l-4-2h-11l-2-7v-5l1-1 7-1z" fill="#78787A"/>
<path transform="translate(1695,245)" d="m0 0 2 1 2 4 4 2 1 6-4 11-7 9-1 4-7 7-11 15-7 11-9 18h-2l1-10 7-20 10-23 9-16 11-17z" fill="#D01A1C"/>
<path transform="translate(673,565)" d="m0 0h2l6 20 6 21 7 21 2-2 3 8 5 16 1 1 2-2 2 1v3h-15l-8-24-1-11-1-1-22-1 7-26 3-9z" fill="#757578"/>
<path transform="translate(65,556)" d="m0 0h63v8l-1 3-2 1h-21v27h-1l-1-26h-13v52h-1l-1-52-22-1z" fill="#646467"/>
<path transform="translate(583,599)" d="m0 0 5 1 6 9 5 6 1 9v10l-4 8-7 6-2 1h-26l-1-2v-7l4-2 14 1v-2l5-3 2-3 1-5v-9l-2-5-6-4 4-8z" fill="#626266"/>
<path transform="translate(898,568)" d="m0 0h15l6 2 3 3 1 2v17l-4 6-5 2h-15l-3-2v-28z" fill="#FEFEFE"/>
<path transform="translate(1797,160)" d="m0 0h1l1 11-4 11-9 10-9 4-13 1-4-1-10-6-6-8-1-3 1-7 2 1 2 4 7 1 12-2 4-2h9v10l9-1 5-12z" fill="#E31E1E"/>
<path transform="translate(316,406)" d="m0 0 2 1 4 9 5 10 1 6-12-1 10 5h14l8 3-1 3-5-1-1-2h-4l2 6 3 1v2l6 2-1 5-3 1-1-5-2 1-1 7h1l-1 10-4-2 1-9-4 2-2 3h-2v-3l5-5 3-4 1-5-4-3-9-4-3-2-4 2-5-6-7-6-5-3v-2l-5-2-2-1 1-4 8-6h7l6 2z" fill="#631A1D"/>
<path transform="translate(759,607)" d="m0 0h12l9 2 5 6 1 4v7l-3 7-6 5h-18l-1-2v-14z" fill="#FDFDFD"/>
<path transform="translate(562,608)" d="m0 0h18l6 5 1 4v9l-2 7-4 4-3 1h-10l-7-2-1-2v-24z" fill="#FEFEFE"/>
<path transform="translate(136,556)" d="m0 0h7l1 2-1 4v40l3 38v8l4 1v3h-14z" fill="#616064"/>
<path transform="translate(117,443)" d="m0 0 2 1v3l4 2-1 4h-5v5l-1-2-8 6-3 3-1 9-4 5-6 1-7-3-5-7 2-4 3-4 2-6-3-1 8-5 2-2 8 1h6l3-3 4-1z" fill="#695D5A"/>
<path transform="translate(669,555)" d="m0 0 9 1 3 2 6 21 19 60 2 6v5h-2l-2 1-6-18-2-7-2 4-10-30-3-10v-7l-6-21-5-3z" fill="#616164"/>
<path transform="translate(165,191)" d="m0 0 5 1v2h-2l1 2 7 4 2 4-2 6 2 1-2 4-5 5h-10l-4-1-1 3-6 5-4-1 2-12 3-10 10-10z" fill="#153667"/>
<path transform="translate(253,327)" d="m0 0 15 4 1-2 4 10 3-3 3 6v9l-1 9-7-4-7 1h-9l3-13 3-7-11-1h-2l-1 4h2l1 3-1 2h-2v2l-4 2-3 1-2-4 4-8 4-6h2v-2z" fill="#5C5750"/>
<path transform="translate(304,190)" d="m0 0 5 1 4 4 5 3 4 8 4 11v8l-3 1-1-3-5-4v-2h-7l-5 1-7-3-2-5v-5h-2l-1-4 4-6z" fill="#153465"/>
<path transform="translate(149,405)" d="m0 0h1l1 5h20l3 2v9l-9 6-7 3-8 4h-3v-2l-4-1-1-1v-14l6-10z" fill="#792123"/>
<path transform="translate(759,568)" d="m0 0h13l7 2 3 4 1 9-2 9-2 2h-19l-2-6v-9z" fill="#FEFEFE"/>
<path transform="translate(561,569)" d="m0 0h19l5 5v12l-4 5-8 3-10-1-2-1-1-4v-14z" fill="#FEFEFE"/>
<path transform="translate(459,572)" d="m0 0 2 1v2l4 2 6 2 5 8 2 6h2l9 30 1 3-1 17h-1l-3-15-5-15-7-16-5-2-2 4v-2l-3-1-2-4-6-4-1-6v-4h2v-5z" fill="#77787A"/>
<path transform="translate(409,580)" d="m0 0 3 3 7 27 4 14 7 17 2 11h-5l-9-27-6 1h-17l-4-1 2-6 7-2 17 1-5-16-4-15v-6z" fill="#4C4B4E"/>
<path transform="translate(280,431)" d="m0 0h5l3 9v2l4 1 4 5 7 1 2 3-8-1-12-7-2-4v-2h-6l3 7 3 8v15l-1 3-3-1-5-8-1-5-2-1v3l-8 1-3 3 2 4-3 1v-2h-2l3 4-1 4-4-7 2-4-2-3h5l2-5 3-1v-3l9-6 1-3-2-1v-3l-5 1 1-2 6-3z" fill="#772628"/>
<path transform="translate(200,443)" d="m0 0 7 1v3l-7 1v3l11 3 6 8v3l5-4h2l-2 6v2l4 1-2 5-3 3-2 4-2 1h-10l-1-2 9-2 5-4v-5l-3-1-2-4-4 2-4 5-4 1v-5l7-5h2l-1-3-5-1-13 4-1 2-6 2-1-2 5-14 2-4z" fill="#7C756B"/>
<path transform="translate(468,594)" d="m0 0 5 2 6 12 5 13 4 15 1 16-5-2-5-12-7-22-5-15v-6z" fill="#626266"/>
<path transform="translate(234,359)" d="m0 0 4 1v2h2l2 7 4 4 1 5h2l5 11 3 6-1 6h-3l-13-27-4-8v-2h-2l-2 7h-2l-2 5-11 22-5 2-1-4 10-19 7-12 5-5z" fill="#F9F6F1"/>
<path transform="translate(1039,580)" d="m0 0h2l3 8 6 21 1 4-23 1 5-20 5-13z" fill="#FEFEFE"/>
<path transform="translate(1493,581)" d="m0 0 4 4 5 12 5 17h-23l3-11 4-16z" fill="#FEFEFE"/>
<path transform="translate(529,572)" d="m0 0h1l1 26v53h-1l-1-17h-4l-1-1-1-15 1-37 3-5z" fill="#78787A"/>
<path transform="translate(147,340)" d="m0 0h5l3 5-1 3-4 1-1 4 4 2 4 7 2 1v2h2l4 5v3h-4v-2h-5l-9-10-18-6 2-4 7-4h2l2-4z" fill="#FEFEFE"/>
<path transform="translate(324,339)" d="m0 0 4 1 4 6v2l5 2 4 5-1 2-15 2-3 1-4 6-5 4-2 4h-2l-1 4-2-1 2-10 2-6 3 1 1-4 5-5 4-3-6-2 1-4z" fill="#FDFDFD"/>
<path transform="translate(225,261)" d="m0 0h5v2l5 2 4 10 3 5-1 4 5 3 1 3-7 3h-7l-4-6-2-7-3-7-2-4 1-5z" fill="#757576"/>
<path transform="translate(358,435)" d="m0 0 7 1-2 1 2 10-1 2 6 5 2 4 3 3-4 1-5 1-4 16h-6l-2-2 5-2 1-2 1-11-1-5-7-1v10l-3 7-3 1-4-3 5-3 3-12 2-3 6-1-1-5-4-1-1 2-4-1 1-3 4-1 2-7z" fill="#581E23"/>
<path transform="translate(227,319)" d="m0 0 9 1 11-1 1 6-3 5-5 8-3 8-7 1-2-9-2-12v-6z" fill="#102D5B"/>
<path transform="translate(673,582)" d="m0 0 2 2 8 28v3h-21l7-26z" fill="#FEFEFE"/>
<path transform="translate(402,554)" d="m0 0 4 2-2 10-5 7-9 21-2 12-2 3h-2l-2 12-3 7-3 9-3 6h-1l1-8 13-41 10-30 4-9z" fill="#4E4C4E"/>
<path transform="translate(265,287)" d="m0 0 31 1 3 3-2 7v8l-1 3-4-1-1-2h-6l-8-4-1-3h2l-2-9-13-1z" fill="#474649"/>
<path transform="translate(406,580)" d="m0 0 2 3 8 31-1 1h-19l2-10 7-24z" fill="#FEFEFE"/>
<path transform="translate(1651,372)" d="m0 0 3 1 7 17 9 14 11 13 11 10 13 8 17 8 12 4v2l-16-2-12-5-13-8-6-5-9-11-7-7-8-12-5-7-5-13z" fill="#185826"/>
<path transform="translate(1764,138)" d="m0 0h11l12 6 1 4h-6l-1-1h-9l-7 2h-7l-5 1-2 5-6 8-3-3 1-6 9-10 4-3z" fill="#E12923"/>
<path transform="translate(612,556)" d="m0 0h15v1h-12l2 3v60l1 8v22l8 1v1h-13v-74z" fill="#7C7A78"/>
<path transform="translate(518,561)" d="m0 0 2 1-2 66-1 7h-1l-1-38-5 15-4-1 1-9 6-21 2-14z" fill="#787879"/>
<path transform="translate(176,290)" d="m0 0h13l-1 3h-5v4 2h-3l1 3h-2v5l-7 1 4 3-1 4 2 1 1-3 2 2v18h-2l-1-10-3-1-2-2-5-3 1-16h2l1-4z" fill="#474649"/>
<path transform="translate(297,289)" d="m0 0h12l-4 11-3 6-3 5-2 3h-2l1 6-2 14-1 1-1 16-2-1-1-45 3 1 1 2 3 1v-11l2-7z" fill="#5A161B"/>
<path transform="translate(345,387)" d="m0 0 2 1 2 5 1 7 4 6 2 2 1 5 3 6v4h2l-1 3-1-2h-2v3h-2v2h-2l-8-8-2-6v-12l1-4z" fill="#CCA65C"/>
<path transform="translate(409,555)" d="m0 0h3l3 7 6 20 12 38 5 16 4 13v3h-4l-3-6-7-32-12-36-3-5v-6l-5-6v-5z" fill="#4E4C4D"/>
<path transform="translate(324,564)" d="m0 0h18l6 3v2l4 1 3 3v2h2v2l4 2 3 1v6l-11 1-5-5-6-10-5-4-7-1-8 5-2 2-1-4 3-5z" fill="#767779"/>
<path transform="translate(85,309)" d="m0 0 4 1-1 5h-3l3 3 3 2v2l7 2 3 8-2 5-2 3-8-9-4-3-7-1-2-5v-6l2-1 1-4h3z" fill="#5E181D"/>
<path transform="translate(355,408)" d="m0 0 7 6 5 5 4 5 2 5-1 5-1 1-15 1-1 7-5 1-1-6 2-3 3-1 2-7h2v-3l3 1 1-2h-2l-3-8-2-4z" fill="#FEFEFE"/>
<path transform="translate(89,569)" d="m0 0 3 1v16l1 12 1 50 5 1v2l-10 1z" fill="#474649"/>
<path transform="translate(185,606)" d="m0 0 4 1 2 6 1 15 1 21 6 1v1h-15v-43z" fill="#666466"/>
<path transform="translate(398,310)" d="m0 0 4 1 1 1v15l-3 4-6 2h-6l-2 4-5 7 2 9 3 4 1 8-5-3-5-10-2-10 2-4 8-5 4-5 11-2-3-10-2-2v-3z" fill="#FEFEFE"/>
<path transform="translate(306,426)" d="m0 0 9 3 4 4 9 3h12l8 3-1 3-5-1-1-2h-4l2 6 3 1v2l6 2-1 5-3 1-1-5-2 1-1 7h1l-1 10-4-2 1-9-4 2-2 3h-2v-3l5-5 3-4 1-5-4-3-9-4-3-2-4 2-5-6-7-6z" fill="#665355"/>
<path transform="translate(62,377)" d="m0 0 7 1 1 12-1 4 1 6-1 9 3 4-4-1-7-7-2-4v-10l1-11h2z" fill="#5E1F24"/>
<path transform="translate(1852,244)" d="m0 0 11 6-1-4 4 4 10 15 6 12h-2l-2-4-14-8-7-7-6-10z" fill="#CD1B1D"/>
<path transform="translate(176,421)" d="m0 0h6l1 2h-2l-2 7-9 3-5 4 1 7 5 2v2l-7 1-1-2-5 6-6 5-5 1 6-8 4-5 2-1 2-9-5 1-1 2h-6l-2-2 10-5h3v2h2v-2l4-1 5-3 4-6z" fill="#4D3A3B"/>
<path transform="translate(1675,279)" d="m0 0 1 3-2 8v8l-3 11-10 17-3 7h-2l1-10 7-20 10-23z" fill="#832925"/>
<path transform="translate(564,241)" d="m0 0 1 2-3 19-3 23-1 14v76l2 17v6l-2-1-2-17-1-95 3-25 5-18z" fill="#5D5A5D"/>
<path transform="translate(266,317)" d="m0 0h9l-1 5v3l3-1-1-3-2-1 2-3h3l1 6v9l-1 10-4-5-2 3-4-9v-2h-2l-3-3-6-3 4-2v-2l-4-1z" fill="#080707"/>
<path transform="translate(150,348)" d="m0 0 2 1h1l3-1 7 7v3h2l1 2 8 1 3 5 1 7-1-2-7-1-5 3-3-5-1-3h-2v-2l-4-2-3-6-3-2z" fill="#873F35"/>
<path transform="translate(180,244)" d="m0 0 5 1v2h8l2 2-1 5 2 5 4 4v2l-18 1-2-6v-7h2l-1-5z" fill="#3E3C3F"/>
<path transform="translate(120,389)" d="m0 0 5 1 1 6-3 8-4 5-7 7-3 7-3 4 1 4 6 2-2 2h-13l-1-3 9-16 12-13 4-8z" fill="#FEFEFE"/>
<path transform="translate(264,336)" d="m0 0 6 1 2 3 1 11-6 5-3 1h-9l3-13 3-6z" fill="#CAA35A"/>
<path transform="translate(250,335)" d="m0 0 11 1 1 2-4 10-2 6-4 1h-10l-1-2h-2v-5l1 2 5-4 2 1 2-5-3-2 2-4z" fill="#040303"/>
<path transform="translate(1623,393)" d="m0 0 2 3 6 12 8 11 1 3 4 2 7 8 12 9 17 9 18 6 18 4 18 2v1h-17l-25-6-16-6-18-10-10-8-10-10-7-10-5-8-3-8z" fill="#244A39"/>
<path transform="translate(626,567)" d="m0 0h1v84h-10l1-17 7 1-3-3 3-15z" fill="#5F5F63"/>
<path transform="translate(103,452)" d="m0 0h3l1 4-4 4h-2l-2 6 1 1v9l-1 1h-7l-6-6v-5l9-7 5-5z" fill="#FEFEFE"/>
<path transform="translate(1872,283)" d="m0 0 8 1v2l4 1 1 3 3 3 1 2 2-2 9 25 1 6-5-5-13-22-11-13z" fill="#C52623"/>
<path transform="translate(513,556)" d="m0 0h4v8l-5 16-1 6h-2l1 3-1 4h-2v2h-5l-1 2 1-7 10-32z" fill="#4C4A4C"/>
<path transform="translate(303,409)" d="m0 0h7v1l-7 2-2 2 3 3v3l8 2 9 3 6 1 1 6-8-1-18-6-1-3-5-2-2-1 1-4z" fill="#782123"/>
<path transform="translate(213,237)" d="m0 0 7 1 1 4-5 2 2 4 3 2v3h-12l-5-5-1 4h-7v-3l7-2 3-5z" fill="#8A8A8B"/>
<path transform="translate(82,328)" d="m0 0 5 1 5 4 5 6-1 8-4 10-4 4h-2l-1 7h-1v-13l7-7h2l1-4h-5l-2-2-1-10-4-2z" fill="#FCFAF7"/>
<path transform="translate(65,556)" d="m0 0h63l-1 7-3-2v-2l-16 1-7-1h-26l-7 5v4h-3z" fill="#5C5C5F"/>
<path transform="translate(669,555)" d="m0 0 9 1 3 2 6 21 2 6v5l-3-4-2 2-1-3-2-1-6-22-5-3z" fill="#4E4C4E"/>
<path transform="translate(668,616)" d="m0 0 16 1 2 3 1 6-27-1 1-7z" fill="#474649"/>
<path transform="translate(71,310)" d="m0 0 6 1 2 5-2 1 1 11h2l-1 3h-7l-4-3-1-7v-7z" fill="#823731"/>
<path transform="translate(194,425)" d="m0 0 6 2 4 3v2l5 2 1 2-5-2-6-3-5 1-1 10-7 5h-12l3-5 1-9 2-2 1 4v5l4 3 4-1-1-6v-3l4-5v-2z" fill="#827766"/>
<path transform="translate(665,559)" d="m0 0 2 1-2 8-8 25-3 12-3 5-2 9-3 8h-2l2-10 12-39z" fill="#78787A"/>
<path transform="translate(280,431)" d="m0 0h5l3 9v2l4 1 4 5 7 1 2 3-8-1-12-7-2-4v-2h-6l3 7 1 4-2-1h-3l-3-2 2-4-2-1v-3l-5 1 1-2 6-3z" fill="#6C6B6E"/>
<path transform="translate(147,444)" d="m0 0h3l-1 4-6 4 1 9-11 8h-2l2-5 6-4 1-10-7 3-1 9h-3l-1-1v-12l16-3z" fill="#5D5550"/>
<path transform="translate(419,606)" d="m0 0 2 4 6 17 2 3 3-1 4 17 2 6-7 1-1-8-4-12-6-15-1-3z" fill="#747476"/>
<path transform="translate(237,367)" d="m0 0 5 2 4 4 1 5h2l5 11 3 6-1 6h-3l-13-27z" fill="#FBF9F4"/>
<path transform="translate(200,443)" d="m0 0 7 1v3l-7 1v3l3 2-5-1v-3l-4 1v4l-3 2v2l6-2 4-1v4l2 1-10 3-1 2-6 2-1-2 5-14 2-4z" fill="#807769"/>
<path transform="translate(178,333)" d="m0 0h2l4 31h-2l-1 3v14l-2-2-3-13-2-4v-3h2l2-8z" fill="#4D494D"/>
<path transform="translate(477,621)" d="m0 0h2l3 8v3l3 1 3 9 1 10-5-2-5-12-3-9v-6z" fill="#4C4B4C"/>
<path transform="translate(342,608)" d="m0 0 6 2 8 7-1 10-5 2-1-11-5-3h-11l2-5z" fill="#626266"/>
<path transform="translate(694,609)" d="m0 0h2l12 36v5h-2l-2 1-6-18-2-8 1-3-3-10z" fill="#444344"/>
<path transform="translate(1648,320)" d="m0 0h1l1 33 3 16v3h-2l-5-12-1-24 2-15z" fill="#305B35"/>
<path transform="translate(117,443)" d="m0 0 2 1v3l4 2-1 4h-5v5l-1-2-8 6-3 3-1 9h-1v-5h-2v5h-1v-7l1-2h2l2-4h2v-2h2v-9l4-4 4-1z" fill="#685A56"/>
<path transform="translate(193,318)" d="m0 0 2 2 4 1 3 5 3 1-1 2 2 1-7 2-6 2 2 4 2 1 3 7h-6l-1-4v-3l-1-1v-19z" fill="#040303"/>
<path transform="translate(120,564)" d="m0 0h7v3l-2 1h-21v27h-1l-1-26h-12l-1-3 3-1z" fill="#7F7C78"/>
<path transform="translate(100,301)" d="m0 0 4 1 1 5h3v14l-2 5h-2l-1 4h-3l-2-4h3l-2-2 1-7 4-4-2-6-2-1z" fill="#F8F7F6"/>
<path transform="translate(234,646)" d="m0 0 16 1 7 2v2l-13 1h-30v-1l11-1v-2z" fill="#78787A"/>
<path transform="translate(228,219)" d="m0 0 8 2 1 4-4 1v5l1 5-4 3-5-1-3-5v-5l5-1 1 1v6l1 1v-8l-1-2-5 2 2-5z" fill="#48474A"/>
<path transform="translate(1845,272)" d="m0 0 4 2 11 14 8 11v2h-5l-4-5-2 1-8-16-4-7z" fill="#535050"/>
<path transform="translate(1595,402)" d="m0 0h12l9 3 8 7 5 8-1 3-6-7v-2l-4-2-9-4-16-3h-2v-2z" fill="#195C23"/>
<path transform="translate(363,452)" d="m0 0h5l4 6 3 3-4 1-5 1-4 16h-6l-2-2 5-2 1-2 1-14h3z" fill="#5B4948"/>
<path transform="translate(253,324)" d="m0 0h8l6 3 1 4-7-1-8-2-5 2v2l-4 4-3 8-2 4-3 1-1-3h2l1-5 5-10 7-6z" fill="#FDFCFB"/>
<path transform="translate(163,283)" d="m0 0h16l1 1h24l7 1v1l-9 1-24 1h-14z" fill="#FEFEFE"/>
<path transform="translate(394,364)" d="m0 0 6 3 4 9-1 4h-6l-4-4-4-7 1-3z" fill="#FDFCFA"/>
<path transform="translate(1393,222)" d="m0 0 1 2-2 11-1 9v12l1 14-3-3-2-8v-20l3-13z" fill="#7B746D"/>
<path transform="translate(185,233)" d="m0 0h2v11l11-1 4-3h2l-1 3-6 3h-2v2h-11v-3l-2 1v-2h-2l3 5-2 4v-4l-3-1v-6l4-6z" fill="#545254"/>
<path transform="translate(184,288)" d="m0 0h23l-2 2-29 1-4 6-2 4-3 1-4-8v-2l3-3h2l1 1v-1z" fill="#61161C"/>
<path transform="translate(96,448)" d="m0 0 13 2 1 5-1 4h-2v2l-4 4h-2v2l-3-1 3-6 5-5v-3l-6 3-2 3-5-2-2-1 2-4z" fill="#5E282D"/>
<path transform="translate(1269,587)" d="m0 0h1v9h31v13h-1v-9h-29v-2l-2-1z" fill="#4D4B4D"/>
<path transform="translate(337,441)" d="m0 0 2 4 3 1v2l6 2-1 5-3 1-1-5-2 1-1 7h1l-1 10-4-2 1-9-4 2-2 3h-2v-3l5-5 3-4 1-5-2-3z" fill="#635B55"/>
<path transform="translate(412,393)" d="m0 0 2 1v7l-6 12-4-1-3-13 7-2h2z" fill="#4F4846"/>
<path transform="translate(228,199)" d="m0 0 17 1-1 11h-7l-3-1-3-6v-2l-3-1z" fill="#030302"/>
<path transform="translate(227,280)" d="m0 0 4 1 1 2h9l5 4 1 3-7 3h-7l-4-6z" fill="#66666A"/>
<path transform="translate(72,365)" d="m0 0h4l6 8-6 6h-7l-2-5z" fill="#FEFEFE"/>
<path transform="translate(172,319)" d="m0 0 5 4 2 15v13l-3 8h-2l-1-5 1-2h2l1-20-3 1-1-3h-2l-2-5 1-4z" fill="#5D1A1E"/>
<path transform="translate(275,336)" d="m0 0 3 3 1 3v9l-1 9-9-5 3-4-1-12h2z" fill="#463938"/>
<path transform="translate(244,217)" d="m0 0 5 2 6 5 4 2v5l-1 1-9-1v-2l-3-1-3-7z" fill="#647444"/>
<path transform="translate(286,422)" d="m0 0 5 1 3 2 13 4 3 5 1 6-4-1-9-8-1-2-2 4-5-6-4-3z" fill="#737272"/>
<path transform="translate(289,327)" d="m0 0h1l1 23 1-15 2-1 1 30-2 2-1-6h-2l-1 3h-2z" fill="#405647"/>
<path transform="translate(244,258)" d="m0 0 4 2 7 6 5-1 3-2-3 11-1 2h-3l-8-10-3-1-2 1-3-3 2-4z" fill="#030202"/>
<path transform="translate(191,316)" d="m0 0 32 1v1l-11 1-7-1-1 4-1 2 5 2 1 4-4 1-2-4-4-3v-3l-5-1-1-1-1 18h-1z" fill="#4E4E51"/>
<path transform="translate(564,241)" d="m0 0 1 2-3 19-3 23-1 14h-1v-31l3-16 3-10z" fill="#807A70"/>
<path transform="translate(409,555)" d="m0 0h3l3 7 6 20 3 11-3-1-7-18-1-3-1-6-4-4v-5z" fill="#555351"/>
<path transform="translate(290,360)" d="m0 0h2l1 2v11l-3 10h-2l-1 7h-1v-13l1-14z" fill="#0E0F0E"/>
<path transform="translate(253,329)" d="m0 0h8l7 2 1-2 3 7v3h-2v-2h-6-3l-11-2z" fill="#574F4C"/>
<path transform="translate(999,639)" d="m0 0h8l-2 11h13v1h-54v-1h36l-2-4z" fill="#515051"/>
<path transform="translate(1728,340)" d="m0 0h1v21l-1 44-2 2v-62l2-3-2-1z" fill="#5A595B"/>
<path transform="translate(290,312)" d="m0 0h1l1 5 1-4 3 3v7l-1 2-1 9-1 1-1 16-2-1z" fill="#2D282A"/>
<path transform="translate(626,567)" d="m0 0h1v84h-1l-1-16-3-3 3-15z" fill="#6F7073"/>
<path transform="translate(584,557)" d="m0 0 5 1 7 6 4 10 1 8-3 10h-1v-15l-5-10-3-3v-2h-2l-1-3z" fill="#7A7979"/>
<path transform="translate(369,303)" d="m0 0h2l-1 6-2 5 2 2v16l-3-1-4-11 1-6 4-10z" fill="#FEFEFE"/>
<path transform="translate(274,230)" d="m0 0h7l3 3-1 7-2 2-7-1-2-3v-7z" fill="#FEFEFE"/>
<path transform="translate(153,210)" d="m0 0 3 3 1 3h2l-1 3-8 8-4-1 2-12z" fill="#474546"/>
<path transform="translate(184,556)" d="m0 0h10v3l-2 2h-3l-1 15-2 9h-1l-1-18z" fill="#626266"/>
<path transform="translate(110,435)" d="m0 0h3v2h2l3 9h-6l-1-2h-8l-1-3 2-5z" fill="#641D1F"/>
<path transform="translate(371,328)" d="m0 0 1 2h8l7 1-4 5-6 3-2 4h-2l-1-5-1-1z" fill="#5D1C21"/>
<path transform="translate(193,449)" d="m0 0h5l1 3 10 1 3 3-2 1v2h-9v-4l-8 4-3-1 2-4 2-1z" fill="#68625E"/>
<path transform="translate(621,605)" d="m0 0 2 4v3l3-4v9l-2 12-1 3 3 4-6-1-1-2 1-11v-10z" fill="#474649"/>
<path transform="translate(227,261)" d="m0 0h3v2l3 1 2 10 3 6-5 1-4-4-3-15z" fill="#FDFDFC"/>
<path transform="translate(221,335)" d="m0 0h2l1 10 2 1-4 1-1-4h-3l-3 3h-4l1 2h-9v-1h6l1-6 8-5z" fill="#3A3B3B"/>
<path transform="translate(205,318)" d="m0 0h15l-1 3h-2l-1 4-3 2h-4l-1 2-1-3-4-2z" fill="#121111"/>
<path transform="translate(546,612)" d="m0 0h2l1 5 1 20-1 14h-2l-1-5z" fill="#474649"/>
<path transform="translate(300,582)" d="m0 0 5 1 1 7-2 10-4 1v15h-1v-21z" fill="#77787A"/>
<path transform="translate(1680,243)" d="m0 0 1 4-10 16-3 3-4-3 2-5h2l2-4z" fill="#7E3B34"/>
<path transform="translate(218,237)" d="m0 0 4 1 2 4 5-1 1 5-6 5-6-2-2-2v-3l5-2-1-3z" fill="#5E5D61"/>
<path transform="translate(284,233)" d="m0 0 9 5v10l-3 3-3-4-1-8h2v-2h-3l-1 4-2 2h-6v-1l6-2z" fill="#514F52"/>
<path transform="translate(353,453)" d="m0 0h6l2 1v5l-1-2-7-1v10l-3 7-3 1-4-3 5-3 3-12z" fill="#4E4140"/>
<path transform="translate(240,223)" d="m0 0h3l2 4v3l3 2-11 4-4 1 3-5-1-4z" fill="#030302"/>
<path transform="translate(377,638)" d="m0 0h2v13h-2l-1 2-6-2v-7l2-3h2l3-1z" fill="#69696D"/>
<path transform="translate(237,469)" d="m0 0 7 1-1 4-8 6-6 4-4 1-2-1v-2l5-1 8-10z" fill="#636063"/>
<path transform="translate(273,454)" d="m0 0h2l1 5 4-2h3v11l-1 3-3-1-5-8-1-5-2-2z" fill="#704749"/>
<path transform="translate(178,313)" d="m0 0 2 2v18h-2l-1-10-3-1-2-2-4-2v-3l9 1z" fill="#4C564D"/>
<path transform="translate(280,431)" d="m0 0h5l3 9v2l4 1 4 5 7 1 2 3-8-1-12-7-2-4 1-7h-4z" fill="#6F6A66"/>
<path transform="translate(294,282)" d="m0 0h9l6 2v4l-20-1v-3z" fill="#FEFEFE"/>
<path transform="translate(150,348)" d="m0 0 2 1h1l3-1 7 7v3h2l1 3-2 1-8-6-4-1-3-2z" fill="#C8AC75"/>
<path transform="translate(419,606)" d="m0 0 2 4 6 17 4 7v6l-2 1-9-23-1-3z" fill="#717275"/>
<path transform="translate(381,614)" d="m0 0 2 1-1 6-3 7-3 9-3 6h-1l1-8 6-19z" fill="#515051"/>
<path transform="translate(199,455)" d="m0 0h2v4l2 1-10 3-1 2-6 2-1-2 2-7 3-1 3 1z" fill="#7D776E"/>
<path transform="translate(194,425)" d="m0 0 6 2 4 3v2l5 2 1 2-5-2-6-3-5 1-1 4h-3l-1 3-2-5 5-6v-2z" fill="#948870"/>
<path transform="translate(207,221)" d="m0 0v3l2 11-6 5 1-5-4 2-3-4h3l3-9z" fill="#E9D7B5"/>
<path transform="translate(265,271)" d="m0 0h3l4 4 4 3-1 5-2 3h-5l-1-10v-4z" fill="#57383B"/>
<path transform="translate(310,597)" d="m0 0h3 1v21l-3 3-1-4z" fill="#474649"/>
<path transform="translate(215,226)" d="m0 0 5 2 2 7-9 3-5 3v-3l4-3z" fill="#030202"/>
<path transform="translate(1797,160)" d="m0 0h1l1 11-4 11-6 2 4-11 3-9z" fill="#E0382A"/>
<path transform="translate(247,319)" d="m0 0h15v2l-2 2v1l-10 2-3 1-1-7z" fill="#484749"/>
<path transform="translate(227,319)" d="m0 0 9 1 11-1v5l-6 1-4-1-5 1-4-1-2-4z" fill="#030202"/>
<path transform="translate(180,244)" d="m0 0 5 1v3l3 2-3 10h-5v-7h2l-1-5z" fill="#050404"/>
<path transform="translate(117,458)" d="m0 0h4l2 10 5 3v2l-9 2 2-2v-5l-6 1z" fill="#4F4546"/>
<path transform="translate(166,361)" d="m0 0h8l3 5 1 7-1-2-6-1-1-3 1-2-7 1z" fill="#BDA06A"/>
<path transform="translate(390,464)" d="m0 0h3l-1 6-5 6-2 4-6 2h-6l4-2 4-4h2v-2l4-2z" fill="#80423D"/>
<path transform="translate(210,457)" d="m0 0h3l3 4v3l-5 3-4 5-4 1v-5l7-5h2z" fill="#756F66"/>
<path transform="translate(319,367)" d="m0 0h1v13l-2 3-1 5-3-1-2-4 2-2 2 1-1-6z" fill="#FDFCFB"/>
<path transform="translate(289,251)" d="m0 0h1v8l-5 3-10 1-3-2 7-1 7-6h3z" fill="#4A4346"/>
<path transform="translate(306,426)" d="m0 0 9 3 4 4 7 3-1 3-3-2-4 2-5-6-7-6z" fill="#777778"/>
<path transform="translate(234,364)" d="m0 0h2l4 10-6-1-8 8v-3l4-7h2z" fill="#464442"/>
<path transform="translate(462,620)" d="m0 0h1l1 9v22l-3-1v-17z" fill="#474649"/>
<path transform="translate(101,469)" d="m0 0h2v7l-3 3-6 1-7-3-2-3v-3l4 2 3 3h7z" fill="#564141"/>
<path transform="translate(225,227)" d="m0 0 3 1v6l1 1 1-3 3 1-2 5-4 1-3-3-2-3v-5z" fill="#5A5E5B"/>
<path transform="translate(422,593)" d="m0 0 3 1 7 23v2l-3-1-6-19z" fill="#535151"/>
<path transform="translate(1482,223)" d="m0 0 3 1 6 15 1 6v15h-1l-3-26h-2z" fill="#8B5D42"/>
<path transform="translate(1704,565)" d="m0 0 5 1v6l-1-4-8 1h-14l-1-2z" fill="#66615A"/>
<path transform="translate(160,443)" d="m0 0h1v7l-9 8-5 1 6-8 4-5z" fill="#644948"/>
<path transform="translate(188,257)" d="m0 0 1 2 5-1 6 5v2h-12v-3-2z" fill="#080707"/>
<path transform="translate(265,470)" d="m0 0 4 1 4 4 3 2-12 4-7 3-3-1 5-2h2l1-4 4 1 2-1v-4z" fill="#897E6B"/>
<path transform="translate(267,350)" d="m0 0h5l-2 4-6 3h-9l1-3 9-3z" fill="#FEFEFE"/>
<path transform="translate(310,441)" d="m0 0 4 1 1 1v11l-4-2-2-3v-7z" fill="#727172"/>
<path transform="translate(270,456)" d="m0 0 1 3-8 1-3 3 2 4-3 1v-2h-2l3 4-1 4-4-7 2-4-2-3h5l1-3 9 1z" fill="#79756F"/>
<path transform="translate(157,432)" d="m0 0h3v2h2v-2l3 1-1 2h-2l-1 4v-3l-5 1-1 2h-6l-2-2z" fill="#7C7262"/>
<path transform="translate(227,324)" d="m0 0 4 5 1 3v6h-2v6l4 1v2h-4l-2-9-2-12z" fill="#52584C"/>
<path transform="translate(408,561)" d="m0 0 5 4 1 6-4 5h-2z" fill="#5F5F63"/>
<path transform="translate(104,557)" d="m0 0h24l-1 6-3-2v-2l-16 1-4-1z" fill="#474649"/>
<path transform="translate(71,310)" d="m0 0 6 1-1 4-5 3-1 2h-2l-1-6z" fill="#FEFEFE"/>
<path transform="translate(248,474)" d="m0 0h2l4 7-5 3h-8l4-4h2z" fill="#737271"/>
<path transform="translate(177,333)" d="m0 0 2 4v14l-3 8h-2l-1-5 1-2h2z" fill="#5D161C"/>
<path transform="translate(308,270)" d="m0 0h3l-2 6-6 5-2-3 1-4 3-3z" fill="#FEFEFE"/>
<path transform="translate(265,281)" d="m0 0 3 1v4h5l1 2h-9l-5 1-4-2 6-3z" fill="#636367"/>
<path transform="translate(558,267)" d="m0 0 2 4-2 28h-1v-31z" fill="#847E72"/>
<path transform="translate(231,460)" d="m0 0h16l3 2v2l-10-1-6-1h-2v2l-7-1 2-2z" fill="#A18B64"/>
<path transform="translate(266,439)" d="m0 0h2l-1 4-5 6-4 1 1-8z" fill="#73706E"/>
<path transform="translate(303,429)" d="m0 0h4l3 5 1 6-4-1-6-7h2z" fill="#626265"/>
<path transform="translate(67,322)" d="m0 0h2l2 3 9 3-1 3h-7l-4-3z" fill="#FEFEFE"/>
<path transform="translate(407,557)" d="m0 0h1v19l-2 5-1-2 1-11-2 2v-8z" fill="#747578"/>
<path transform="translate(176,421)" d="m0 0h6l1 2h-2l-2 7h-4v-3l-3-1z" fill="#675F5B"/>
<path transform="translate(203,245)" d="m0 0v3l-7 2 4 1h4l1 6-2-1v-2h-5l-4 2-1-5 4-4z" fill="#68686C"/>
<path transform="translate(193,449)" d="m0 0h5l2 6-7 4-3-1 2-4 2-1z" fill="#48474A"/>
<path transform="translate(411,359)" d="m0 0 2 2 2 11v7l-2-3-4-11 1-5z" fill="#80322E"/>
<path transform="translate(1845,272)" d="m0 0 4 2 7 9-1 3-3 1-7-13z" fill="#777572"/>
<path transform="translate(409,555)" d="m0 0h3l3 7v6l-7-7v-5z" fill="#474649"/>
<path transform="translate(169,308)" d="m0 0 6 2 1 4-3 2-5-1-1 2 1-8z" fill="#504E47"/>
<path transform="translate(245,205)" d="m0 0 6 4v2l4 1 5 5-1 2-5-3-8-5z" fill="#8B7958"/>
<path transform="translate(381,460)" d="m0 0 2 3-1 1-1 9-1 2h-2l-1-2v-8l2-3h2z" fill="#63514F"/>
<path transform="translate(113,446)" d="m0 0 5 1-1 5-6 2-2-4z" fill="#FEFEFE"/>
<path transform="translate(257,224)" d="m0 0h5l6 5v4l-9-3z" fill="#060B04"/>
<path transform="translate(179,360)" d="m0 0 2 2v19l-2-2-3-13 1-4 1 3z" fill="#672828"/>
<path transform="translate(621,568)" d="m0 0 3 3v14l-3-3-1-8z" fill="#474649"/>
<path transform="translate(363,452)" d="m0 0h5l3 5v2l-5 2-3-7z" fill="#FDFCFA"/>
<path transform="translate(131,437)" d="m0 0h13l1 2-9 3h-7v-2h3z" fill="#6D5D61"/>
<path transform="translate(255,226)" d="m0 0 4 2-1 4-9-1v-4z" fill="#A1A2A4"/>
<path transform="translate(110,457)" d="m0 0 3 1-8 7-1 9h-1v-5h-2v5h-1v-7l1-2h2l2-4h2v-2z" fill="#6A6866"/>
<path transform="translate(116,410)" d="m0 0h1v6l2 1-5 5h-3v-6l3-1z" fill="#AC603C"/>
<path transform="translate(352,410)" d="m0 0 2 1v2h3l2 3v6h-3l-4-9z" fill="#7E2623"/>
<path transform="translate(319,364)" d="m0 0 1 3-4 9-4-1v-5z" fill="#998A6E"/>
<path transform="translate(238,348)" d="m0 0h1v5l3-1v6l-3 1v-3h-3v2h-2l-1-3 4-2z" fill="#395242"/>
<path transform="translate(339,454)" d="m0 0 1 2 1 9-2 4-3-2 1-11z" fill="#6B615D"/>
<path transform="translate(295,435)" d="m0 0 5 2 5 6-1 5-1-3h-2l-6-7z" fill="#777572"/>
<path transform="translate(259,343)" d="m0 0h1l1 5 4-3-2 4v3h-2v2h-5l2-10z" fill="#696561"/>
<path transform="translate(1857,293)" d="m0 0 7 1 4 5v2h-5l-4-5-2 1z" fill="#203B67"/>
<path transform="translate(186,395)" d="m0 0 3 3 9 14 2 4-4-2-8-13z" fill="#24492F"/>
<path transform="translate(234,251)" d="m0 0 5 1 2 2v3l-4 1-4-2z" fill="#626266"/>
<path transform="translate(185,239)" d="m0 0 2 3v2l11-1 4-3h2l-1 3-6 3h-10l-2-3z" fill="#837967"/>
<path transform="translate(184,234)" d="m0 0v3l-3 7 1 4 1 3-2 2v-4l-3-1v-6l4-6z" fill="#603539"/>
<path transform="translate(377,638)" d="m0 0h2v13l-4-1-1-4z" fill="#77787B"/>
<path transform="translate(107,455)" d="m0 0 2 4h-2v2l-4 4h-2v2l-3-1 3-6z" fill="#534246"/>
<path transform="translate(340,447)" d="m0 0 1 3-2 5-6 5-2 3h-2v-3l5-5 4-3z" fill="#483D3C"/>
<path transform="translate(172,427)" d="m0 0h3l-1 4-6 4h-4l3-5z" fill="#574F4E"/>
<path transform="translate(282,457)" d="m0 0h1v11l-1 3-3-1-2-6 4-2z" fill="#676668"/>
<path transform="translate(323,446)" d="m0 0 5 1 3 3v2l-6 2v-4h-2z" fill="#736C65"/>
<path transform="translate(358,435)" d="m0 0 4 2h-5l1 9h-4l-1 2-4-1 1-3 4-1 2-7z" fill="#7F5A4B"/>
<path transform="translate(372,301)" d="m0 0 4 2 1 6-4 2-2-2z" fill="#641F22"/>
<path transform="translate(236,288)" d="m0 0h10v3l-10 1z" fill="#FEFEFE"/>
<path transform="translate(377,628)" d="m0 0h1l-1 8-4 7h-1l1-8 3-6z" fill="#4E4D50"/>
<path transform="translate(179,431)" d="m0 0 2 1v8l1 4h-3l-2-4 1-7z" fill="#69625F"/>
<path transform="translate(255,402)" d="m0 0h7l-1 4-6 3-1-5z" fill="#050404"/>
<path transform="translate(170,197)" d="m0 0 5 2 3 3-1 6-3-1z" fill="#767473"/>
<path transform="translate(364,458)" d="m0 0 3 2 5-2 3 3-4 1-6 1-4-1v-3z" fill="#6F6863"/>
<path transform="translate(304,190)" d="m0 0 3 1h-2l-2 4h-2v2l-7 4 2-5 5-4z" fill="#707074"/>
<path transform="translate(121,465)" d="m0 0 4 5 3 1v2l-9 2 2-2v-5l-4-1z" fill="#786F61"/>
<path transform="translate(334,436)" d="m0 0h6l8 3-1 3-5-1-1-2h-4l-1 2v-2l-3-1z" fill="#775556"/>
<path transform="translate(224,237)" d="m0 0 6 1h3l-2 6-4-2h-4l-1-4z" fill="#030202"/>
<path transform="translate(226,224)" d="m0 0 3 1 1 2v8l-3 1-2-2h3l-1-6-4 1 2-4z" fill="#499B1D"/>
<path transform="translate(623,601)" d="m0 0h3v7l-2 6-2-4z" fill="#626266"/>
<path transform="translate(323,554)" d="m0 0h19v1l-16 2h-5l-1-2z" fill="#787879"/>
<path transform="translate(275,437)" d="m0 0 2 1 3 7 1 4-2-1h-3l-3-2 2-4z" fill="#847D70"/>
<path transform="translate(303,409)" d="m0 0h7v1l-7 2-4 5h-2l-1 2h-2l1-4z" fill="#866B63"/>
<path transform="translate(220,210)" d="m0 0 2 1-4 4-2 4h-6v-2l4-2 3-3z" fill="#5F783A"/>
<path transform="translate(259,600)" d="m0 0h1v9l-16-1v-1l13-1z" fill="#626266"/>
<path transform="translate(161,194)" d="m0 0h2l-2 5-8 6-2-1z" fill="#616670"/>
<path transform="translate(222,461)" d="m0 0h2l-2 4-1 4h-4l-2-5 2-2v3z" fill="#85735E"/>
<path transform="translate(90,461)" d="m0 0h2v2l-5 3-2 7-3-3 2-4 3-4z" fill="#625B5C"/>
<path transform="translate(390,464)" d="m0 0h3l-1 6-3 4-3-1z" fill="#6C4141"/>
<path transform="translate(280,431)" d="m0 0h5l2 4v5h-4l1-7h-4z" fill="#515154"/>
<path transform="translate(306,426)" d="m0 0 9 3 2 5-4-1-7-6z" fill="#5E5E62"/>
<path transform="translate(59,391)" d="m0 0h1l1 7 4 6-1 4-4-5-1-2z" fill="#5E5755"/>
<path transform="translate(174,365)" d="m0 0 3 1 1 7-1-2-6-1-1-3z" fill="#CAA55C"/>
<path transform="translate(253,327)" d="m0 0 5 1v1h-5l-2 4-4 2h-2l1-3h2v-2z" fill="#89795D"/>
<path transform="translate(200,260)" d="m0 0 3 1 1 5h-17v-1l7-1 6 1-1-4z" fill="#5F5F63"/>
<path transform="translate(1671,257)" d="m0 0 3 1-5 8-3-2v-3h2l1-3z" fill="#554D4C"/>
<path transform="translate(564,241)" d="m0 0 1 2-3 14-3 1 4-16z" fill="#7F6F58"/>
<path transform="translate(409,572)" d="m0 0 4 8v3h-2l-2-2-2 2v-6z" fill="#6B6B6F"/>
<path transform="translate(205,466)" d="m0 0h4l-1 5-5 2v-5z" fill="#75726D"/>
<path transform="translate(128,449)" d="m0 0h6l-3 3h-2v8h2l1-3v6l-4-2z" fill="#797163"/>
<path transform="translate(1661,440)" d="m0 0 15 8-2 2-14-8z" fill="#344A3C"/>
<path transform="translate(221,341)" d="m0 0h1v6l-10 1-2-2 5-1h2l1-3 3 1z" fill="#030202"/>
<path transform="translate(623,593)" d="m0 0 3 1v7l-2 1-2 3v-8z" fill="#474649"/>
<path transform="translate(624,557)" d="m0 0h4v4h-2v2l-4-1-2-3z" fill="#4C4B4E"/>
<path transform="translate(195,447)" d="m0 0m-3 1 3 1-1 5-6 4 3-9z" fill="#797165"/>
<path transform="translate(134,449)" d="m0 0 3 1-4 3-2 7h-2v-8z" fill="#543E3F"/>
<path transform="translate(164,442)" d="m0 0 4 3 3 1v2l-7 1-2-4z" fill="#7F7564"/>
<path transform="translate(160,255)" d="m0 0h6v3l-7 1-1 3-1-4z" fill="#77787B"/>
<path transform="translate(437,643)" d="m0 0 4 2 1 7h-4z" fill="#565659"/>
<path transform="translate(1e3 642)" d="m0 0h4v7l-6-2z" fill="#AFADAA"/>
<path transform="translate(234,474)" d="m0 0 2 1-5 7-2 2-4 1-2-1v-2l5-1z" fill="#6C6863"/>
<path transform="translate(353,453)" d="m0 0h6l2 1v5l-1-2h-9z" fill="#8D816D"/>
<path transform="translate(197,403)" d="m0 0 5 5 7 8h-3l-7-8z" fill="#235532"/>
<path transform="translate(168,315)" d="m0 0 10 3-1 3-6-1-3-2z" fill="#FAF8F3"/>
<path transform="translate(244,269)" d="m0 0h5l5 5-3 1-6-3z" fill="#6C6D70"/>
<path transform="translate(109,234)" d="m0 0h2l-1 4-5 1-7 6 2-4 6-6z" fill="#7E5F5A"/>
<path transform="translate(999,639)" d="m0 0h8l-1 4-2 1v-2h-4l-1 3z" fill="#69696D"/>
<path transform="translate(513,575)" d="m0 0h1l-1 9-2 5-2-1 3-11z" fill="#626266"/>
<path transform="translate(349,462)" d="m0 0h1v7 4l-3 1-4-3 5-3z" fill="#6F6C6A"/>
<path transform="translate(241,358)" d="m0 0 2 2 2 9-5-5-1-5z" fill="#070606"/>
<path transform="translate(238,337)" d="m0 0 2 1-3 8h-2l-2-6z" fill="#58534E"/>
<path transform="translate(205,240)" d="m0 0 3 2-5 4-8 2v-2l8-4z" fill="#030202"/>
<path transform="translate(207,221)" d="m0 0v3 9l-4-3v-6z" fill="#DBBC82"/>
<path transform="translate(426,631)" d="m0 0 4 1 1 2v6l-2 1z" fill="#626266"/>
<path transform="translate(150,348)" d="m0 0 2 1h1l3-1v2h-2l1 5h-3l-3-2z" fill="#937D66"/>
<path transform="translate(225,227)" d="m0 0 3 1v6l-4-1-1-4z" fill="#DDC089"/>
<path transform="translate(262,477)" d="m0 0 3 1 1 2-5 3-7 1 3-3h4z" fill="#6D6A68"/>
<path transform="translate(221,467)" d="m0 0 1 2 4 1-2 5h-3l-1-6z" fill="#847A69"/>
<path transform="translate(147,444)" d="m0 0h3l-1 4-3 2h-4l2-4z" fill="#655951"/>
<path transform="translate(303,434)" d="m0 0h7l1 6-4-1z" fill="#757474"/>
<path transform="translate(690,594)" d="m0 0 2 1 3 11-4-2z" fill="#545356"/>
<path transform="translate(321,453)" d="m0 0 3 1-1 5-6-2 1-3z" fill="#76726C"/>
<path transform="translate(286,422)" d="m0 0 5 1 4 4-1 2-7-4z" fill="#5A595D"/>
<path transform="translate(172,411)" d="m0 0 2 1v9l-5 2 2-4z" fill="#5D5D61"/>
<path transform="translate(345,387)" d="m0 0 2 1 1 10-3-1z" fill="#FEFEFE"/>
<path transform="translate(195,339)" d="m0 0h2l3 7h-6l-1-4h2z" fill="#2E0B0D"/>
<path transform="translate(117,234)" d="m0 0 4 1 2 1v-2l2 1v3l-4 1-4-1z" fill="#BB955B"/>
<path transform="translate(166,193)" d="m0 0 5 5 1 5-1-2h-3v-2l-3-2z" fill="#1322AF"/>
</svg>
