<?xml version="1.0" encoding="UTF-8"?>
<svg version="1.1" viewBox="0 0 2048 880" width="1280" height="1280" xmlns="http://www.w3.org/2000/svg">
<path transform="translate(0)" d="m0 0h2048v880h-2048z" fill="#FEFEFD"/>
<path transform="translate(457,208)" d="m0 0h43l22 3 26 6 20 6 20 8 20 10 19 12 14 10 10 8 14 12 12 12 7 8 13 17 12 19 12 22 11 27 8 28 5 29 1 11v59l-3 23-7 30-8 24-8 18-13 24-10 14-13 16-9 11-19 19-8 7-13 10-21 13-19 10-25 10-25 8-30 6-15 2h-45l-27-4-24-6-30-10-20-9-22-13-17-12-11-9-10-9-19-19-11-14-9-13-15-25-11-23-9-25-6-25-3-17-1-10v-63l3-24 5-23 8-24 8-18 8-16 8-15 13-19 11-14 11-12 12-12 11-9 18-14 18-11 25-13 26-10 28-7 25-4z" fill="#80B3D9"/>
<path transform="translate(462,303)" d="m0 0h33l19 3 21 6 15 6 21 11 14 10 11 9 12 12 10 13 10 15 12 25 6 18 4 18 2 16v16l-4 31-7 24-9 20-8 14-12 16-12 13-14 12-16 11-18 10-15 6-20 6-16 3-10 1h-28l-24-4-21-6-21-9-15-9-12-9-10-9-8-7-7-8-9-11-10-16-9-19-7-21-4-19-1-9v-33l3-21 6-20 8-19 10-18 12-16 12-13 12-11 18-13 16-9 17-7 23-6z" fill="#142B7E"/>
<path transform="translate(454,119)" d="m0 0h17l31 2 36 6 36 10 12 5 15 6 15 7 17 9 20 13 19 14 14 12 8 7 18 18 7 8 12 15 16 24 12 21 9 18 3 7 5 12 9 27 3 12 3 9-1 4-5-11-4-8-4-10-9-15-10-17-11-17-11-13-9-11-12-13-13-13-11-9-12-10-13-9-15-9-27-14-23-10-29-9-32-7-23-3-12-1h-34l-21 2-23 4-32 8-26 9-27 13-22 13-16 11-14 11-14 13-6 5-7 8-11 11-11 14-13 18-13 21-12 23-10 26-7 21-6 23-5 26-2 22v40l3 26 5 27 7 26 5 15 4 9 3 7 5 12 11 21 13 21 4 7-1 2-11-13-12-14-11-12-11-15-12-18-12-23-9-19-12-36-10-40-3-21v-44l3-27 7-36 4-15 6-20 6-15 4-8 4-10 14-26 14-21 10-13 12-14 11-12 13-13 11-9 12-10 20-14 20-12 23-12 11-4 8-4 29-9 24-6 23-4 18-2z" fill="#142B7E"/>
<path transform="translate(1834,269)" d="m0 0h3l7 24 15 58 30 115 16 60 5 21v5h-65l-6-26-1-1-2-19h-62l-5 18-7 28-3 4-3 7-60-1 2-4 7-25 29-115 18-71 16-62 5-15z" fill="#142B7E"/>
<path transform="translate(456,388)" d="m0 0h34l14 3 13 5 14 8 13 10 13 13 10 15 7 16 4 13 3 19-1 13-6 18-8 14-11 13-9 9-13 9-16 8-13 4-18 3h-17l-17-3-21-7-16-10-10-9-10-10-10-15-7-15-4-14-2-13v-21l3-14 5-13 7-9 8-9 8-7 12-9 15-8 14-5z" fill="#FFFFFE"/>
<path transform="translate(1016,265)" d="m0 0h19l22 4 20 8 2 1v51l-2 4-14-9-12-5-9-2h-15l-9 3-5 5-2 3h-2v3h-2l-2 8v10l3 8 7 10 11 10 17 12 12 8 13 10 7 6 11 14 6 12 3 10 2 11v19l-3 16-5 15-9 17-8 10-9 5-16 8-15 5-12 2h-22l-20-4-15-5-8-4v-28l1-26 5 1 10 6 15 5 5 1h21l9-4 8-7 4-7v-8l-6-10-5-5-8-7-22-14-18-13-10-9-8-9-9-14-5-12-2-10v-18l2-13 5-22 7-15 7-12 11-12 14-9 13-5z" fill="#142B7E"/>
<path transform="translate(1329,270)" d="m0 0h157v57l-1 3-3 2h-3v10h-40l-1 1-1 209-5 1-1 9h-60l2-40 1-186h2v-4l-2 1-25 1 23 1 1 5-1 1h-47v-12l1-13 1-35 1-2z" fill="#142B7E"/>
<path transform="translate(471,175)" d="m0 0h34l29 3 34 7 27 8 25 10 26 13 17 10 13 9 14 11 10 9 8 7 16 16 9 11 12 14 9 13 10 17 13 21-1 4-2 1 10 25 2 15h-2l-5-16-12-25-10-17-11-16-11-14-12-14-18-18-11-9-13-11-17-12-21-13-33-16-21-8-19-6-26-6-27-4-13-1h-38l-22 2-28 5-22 6-22 8-24 11-21 11-20 13-16 12-11 9-15 14-13 13-9 11-14 19-10 15-11 19-12 23-4 5 2-9 10-24 11-21 12-19 14-19 8-10 9-10 10-10 6-7 8-7 10-9 16-12 17-11 21-12 23-11 30-10 28-7 23-4z" fill="#979DA6"/>
<path transform="translate(217,554)" d="m0 0 2 3 8 23 6 9 14 26 6 10 3 9 2 7 6 9 9 10 10 8 14 9 13 10 27 18 17 10 20 8 25 8 32 8 23 4h35l31-4 30-7 28-8 24-10 17-9 19-12 17-12 22-22h2v-2h2l2-4 7-8 7-10 5-8 8-11 6-11 10-17 5-11 1 4-10 25-10 19-9 15-14 18-9 11-9 10-15 15-8 7-13 10-21 13-19 10-25 10-25 8-30 6-15 2h-45l-27-4-24-6-30-10-20-9-22-13-17-12-11-9-10-9-19-19-11-14-9-13-15-25-11-23-9-25-3-11z" fill="#989DA6"/>
<path transform="translate(466,370)" d="m0 0h22l18 3 19 7 15 9 9 7 5 4 11 14 9 16 6 15 4 17 1 15-2 12-1 5-2-4-3-19-6-18-8-16-9-12-12-12-14-10-15-8-16-5-7-1h-34l-15 3-15 6-11 6-13 10-9 8-7 8-4 4 1-9 9-13 6-7 5-4 5-5 11-9 14-8 16-6z" fill="#979DA6"/>
<path transform="translate(1908,595)" d="m0 0h4l4 40 1 16h-14l-1-1-2-24-2 1-3 23-4 1h-9l-3-11-3-15-1 5-1 21h-13l-1-1v-9l4-39 1-6h19l4 19v3l2-1 2-19 1-2z" fill="#142B7E"/>
<path transform="translate(1803,344)" d="m0 0 2 4 2 22 9 38 2 14 2 5 4 21v6l-4 1h-36l-1-5 4-20 10-54 4-21 1-9z" fill="#FAFAFA"/>
<path transform="translate(1554,595)" d="m0 0h11l6 3 6 8 3 10v15l-3 10-5 6-5 3-10 2-7-2-6-5-5-9-2-8v-9l2-9 6-10 6-4z" fill="#1E3481"/>
<path transform="translate(1476,595)" d="m0 0h9l8 3 5 6 4 9v20l-4 10-8 7-5 1h-9l-7-4-6-7-2-4v-22l3-9 5-7z" fill="#1D3280"/>
<path transform="translate(1816,595)" d="m0 0h20l10 3 4 3 3 9v7l-3 7-4 2 2 9 6 13v3h-14l-6-12-2-8h-2v20l-5 1-9-1-1-11v-44z" fill="#1C3280"/>
<path transform="translate(1415,595)" d="m0 0 14 1 3 7 7 21v-29h14v56h-10l-5-2-5-12-4-10-2-1 1 2 1 22-3 1h-11z" fill="#142B7E"/>
<path transform="translate(1106,595)" d="m0 0 18 1 6 3 5 6v15l-3 5-3 1 6 18 2 7h-13l-5-8-3-9h-2l-1 17h-13l-1-6 1-49z" fill="#142B7E"/>
<path transform="translate(1392,595)" d="m0 0h8l6 1v54h-14l-1-2-1-20-5 1-1 7v14l-2 1h-12l-1-1v-54h15l1 18 5 2 1-8z" fill="#142B7E"/>
<path transform="translate(1600,595)" d="m0 0h10l9 4 4 5 2 5-1 2-7 2-5 1-5-4-4 1-2 7v13l2 5 4 1 2-1 1-6-4-1-1-2v-7l1-1 20-1 1 2v11l-3 10-6 7-11 4-5-1-8-3-5-5-3-5-1-6v-17l2-8 4-6 6-5z" fill="#1D3380"/>
<path transform="translate(130,489)" d="m0 0h1l5 25 8 31 11 32 16 33 8 14 14 20 9 11 5 5-1 2-6-4 7 11 8 12 11 16 1 4-6-4-12-12-13-17-12-17-13-21-12-23-11-25-9-27-6-29-2-13z" fill="#979DA6"/>
<path transform="translate(1774,505)" d="m0 0h43l19 1 2 9 1 10 3 9 3 14v4h59l1 10-10 1h-30l-25-1-2-7-8-37v-2h-22l-33-1-3-2 1-7z" fill="#999EA7"/>
<path transform="translate(1781,596)" d="m0 0h20l10 54v1h-14l-3-7h-8l-2 7h-14l1-12 9-40z" fill="#142B7E"/>
<path transform="translate(1704,596)" d="m0 0h20l10 53v2h-13l-2-1-1-6-9-1-2 8h-11l-4-2z" fill="#142B7E"/>
<path transform="translate(1065,595)" d="m0 0h3l1 40 1 2h6l1-41 13-1 1 3v38l-2 7-4 5-9 3h-7l-10-4-4-6-1-3v-42z" fill="#142B7E"/>
<path transform="translate(941,346)" d="m0 0h1l1 7 2 7 4 17 5 12 7 11 10 11 16 12 17 11 15 10 10 9v3l3 1 4 8v13l-1 6h-1l-2-9-6-9-5-5-10-8-19-12-18-13-10-9-8-9-9-14-5-12-2-10v-18z" fill="#969CA6"/>
<path transform="translate(984,595)" d="m0 0h24l2 1v13l-11 1-2 1 2 5 9 1 1 2v8l-1 2-8 1-3 3 2 4 10 1 1 1v11l-1 1h-26l-1-6v-49z" fill="#142B7E"/>
<path transform="translate(1296,596)" d="m0 0h28v8l-1 5h-12l1 6 1 1 10 1v13l-10 1-2 1 1 4 11 2 1 3v7l-1 3h-27z" fill="#19307F"/>
<path transform="translate(955,500)" d="m0 0h1v44l18 7 17 4 7 1h22l16-3 16-6 13-7 4-3 2 1-5 7-11 8-15 8-13 4-13 2h-15l-16-2-21-6-12-6v-27l1-19 1-5z" fill="#9A9FA9"/>
<path transform="translate(1627,595)" d="m0 0h16l3 9 1 6 5-13 2-2h14l-2 9-8 21-1 4-1 22h-15l-1-4-1-19-6-17-6-13z" fill="#203581"/>
<path transform="translate(1199,595)" d="m0 0h12l3 3 3 8h2l3-10 1-1h15l-1 5-10 26-2 25h-15l-1-23-8-20-2-7z" fill="#1F3481"/>
<path transform="translate(956,596)" d="m0 0h17l2 3v13l-2 1-6-4h-4v5l10 8 3 6v8l-3 8-7 6-3 1h-14l-2-4v-11l1-2 13 3-2-6-8-6-4-6v-11l4-8z" fill="#1F3581"/>
<path transform="translate(1348,595)" d="m0 0h11l2 2 1 5v8h-11l-4 4-1 3v12l3 6 5 2 4-2h4l-1 12-2 4h-13l-8-4-7-8-2-12v-8l2-10 6-9 8-4z" fill="#1E3481"/>
<path transform="translate(1037,595)" d="m0 0h9l1 4v12l-10-1-4 4-2 5v9l3 6 5 3 8-2 1 6-2 9-4 2-11-1-8-4-6-9-3-12 1-12 5-10 8-7z" fill="#1F3481"/>
<path transform="translate(1163,596)" d="m0 0h30l1 1v11l-4 1-4 2-1 40h-13l-1-1v-41h-6l-2-1z" fill="#142B7E"/>
<path transform="translate(1261,596)" d="m0 0h31v12l-7 1-1 1-1 41h-13l-1-1v-41h-8z" fill="#142B7E"/>
<path transform="translate(1508,596)" d="m0 0h16v39l1 2 8 1 1 1v12h-25l-1-4z" fill="#142B7E"/>
<path transform="translate(1739,596)" d="m0 0h14l1 40 1 1 10 1v9l-1 4h-23l-2-4z" fill="#142B7E"/>
<path transform="translate(1374,336)" d="m0 0h1l1 216h60l-4 1-1 9h-60l2-40z" fill="#989DA6"/>
<path transform="translate(1143,596)" d="m0 0h15v55h-14z" fill="#142B7E"/>
<path transform="translate(1027,316)" d="m0 0h15l12 3 16 8 4 6-2 2 1 7-4-1-14-8-10-4-8-2h-14l-11 2 2-7 6-4z" fill="#989DA6"/>
<path transform="translate(1803,344)" d="m0 0 2 4 2 22 9 38 2 14 2 5 4 21v6l-5-1-2-2-11-48-3-22v-22l-2 3 1-16z" fill="#949CA9"/>
<path transform="translate(1700,550)" d="m0 0 1 2h60l-5 11-60-1 2-4z" fill="#979CA5"/>
<path transform="translate(250,286)" d="m0 0 2 1-4 5-5 10-2 3 1 4-13 18-10 15-11 19-12 23-4 5 2-9 10-24 11-21 12-19 14-19 8-10z" fill="#93A1AF"/>
<path transform="translate(1437,332)" d="m0 0h42v10h-41z" fill="#989DA6"/>
<path transform="translate(1325,329)" d="m0 0 2 2 47 1v1l-25 1 23 1 1 5-1 1h-47z" fill="#979CA6"/>
<path transform="translate(1557,609)" d="m0 0 5 2 2 2v17l-2 6-5 1-3-5-1-6v-8l3-8z" fill="#FFFFFE"/>
<path transform="translate(223,329)" d="m0 0 1 2-4 6-2 7-9 15-13 25-4 5 2-9 10-24 8-15 5-3z" fill="#959FAB"/>
<path transform="translate(1480,609)" d="m0 0 5 2 1 2v19l-3 5-5-1-2-4v-17z" fill="#FFFFFE"/>
<path transform="translate(1803,344)" d="m0 0 2 4 2 22 2 9-1 8-2-3-2-6h-1v-19l-2 3 1-16z" fill="#82B1D4"/>
<path transform="translate(1815,412)" d="m0 0h1l3 14 2 7 3 15v6l-3-1-3-14-2-16-1-4z" fill="#EAEDEF"/>
<path transform="translate(1114,607)" d="m0 0h5l2 2v9l-2 2h-5l-1-11z" fill="#E7EAED"/>
<path transform="translate(230,315)" d="m0 0 2 2-2 2-3 5-10 15-4 2 2-6 11-17z" fill="#84AFD0"/>
<path transform="translate(207,357)" d="m0 0h2l-2 6-14 26-1-3 5-14 4-4z" fill="#8AA9C2"/>
<path transform="translate(250,286)" d="m0 0 2 1-4 5-5 10-4 5-2 2-3 2 3-9 11-14z" fill="#84AFD0"/>
<path transform="translate(1790,617)" d="m0 0h2l1 4v11l-1 1h-5l1-11z" fill="#D8DEE3"/>
<path transform="translate(1714,616)" d="m0 0h2v17h-5v-9z" fill="#D3DEE7"/>
<path transform="translate(757,330)" d="m0 0 6 1 6 10v4l-4-2-4-4-4-7z" fill="#83B1D3"/>
<path transform="translate(1831,608)" d="m0 0h6v10l-1 1h-5z" fill="#FFFFFE"/>
<path transform="translate(1374,332)" d="m0 0h2v4h-2l-1 2-1-2-23-1-1-2z" fill="#F8F9F9"/>
<path transform="translate(1803,344)" d="m0 0 2 4 1 19-2 2-1-5v-5l-2 3 1-16z" fill="#91A2B3"/>
<path transform="translate(1821,510)" d="m0 0h8v3 2h-16v-2l8-2z" fill="#80B4DA"/>
<path transform="translate(779,377)" d="m0 0h2l4 11 1 11h-2l-4-17z" fill="#88ABC7"/>
<path transform="translate(207,357)" d="m0 0h2l-2 6-5 9-2-2z" fill="#85AECE"/>
<path transform="translate(226,325)" d="m0 0 2 4-8 11-1-3 4-6 1-4z" fill="#8DA7BD"/>
<path transform="translate(1810,391)" d="m0 0h2v13l-2 2-1-12z" fill="#A8C4DA"/>
<path transform="translate(395,411)" d="m0 0 2 1-5 5-6 7-1-2 6-8z" fill="#83B0D3"/>
<path transform="translate(235,305)" d="m0 0 2 1-3 7-5 4-2-1z" fill="#8FA4B7"/>
<path transform="translate(226,680)" d="m0 0h2l5 9-1 2-6-7z" fill="#657196"/>
</svg>
