<?xml version="1.0" encoding="UTF-8"?>
<svg version="1.1" viewBox="0 0 2048 546" width="1280" height="1280" xmlns="http://www.w3.org/2000/svg">
<path transform="translate(335,107)" d="m0 0h31l18 4 19 7 14 8 14 11 9 9 10 13 8 14 6 15 5 18 1 6v28l-3 15-7 21-10 18-8 10-9 10-11 9-14 9-18 8-19 5-8 1h-23l-18-3-21-6-11-5-3-1 2 11 2 5-1 7-4 4h-2l-1-3v-11l1-12 2-4-5-2-7-7-8-6-1 6 2 9 1 7 6 8 4 9 3 6-2 1 6 9 8 8 7 16 4 16v9l-1 2 1 7v5l-2 1 1 3 5 3v2l-22-1 3 3v2l-7 2-8 1-28 2h-7v-2l-19 3h-5l1-4 2-2v-8l-2 7-3 2h-9l-5-1h-25l-9 2-2-1v-8l8-13 5-12 5-18 2-3h3l1-5 6-11 7-10 5-5 3-9v-16l4-7v-12l-1-6-2-1v-2l-15 3 1 13-3 3h-5v-4l-2-1v-2h2v-6l-2 1-1 9 3 4-1 15 2 5-1 6-2 2-5-1-1-7 1-5 1-32-8-7-7 1-17 4-4 1-2 2 2 1v10l-1 2h-3v2l3 1v14l-1 11 1 1v6l-2 3-4-1-2-2v-34l2-10-9-3-12-10-2-1h-6l3 1-1 3v9l-1 12 2 4-1 6-4 3-4-5 2-31-8-1-20-3-2 5-8 5-9 2h-5l-2-3-1-6v-9l4-10 8-8 4-2-3-3 2-4 5-5 11-9 13-7 15-1 2-1-3-3v-2l12-6 17-5h18l8-4 5-3 10-2 5-5 15-4 10-2h12l11 2 4-17 6-16 9-16 9-12 12-12 10-8 13-8 13-6 16-5zm-134 106-4 1-3 3-25 7-5 4-9 4-12-2-21 6-6 3v2l7 4 1 5v3l12 6 10-1 2-3-9-5v-2l6-1 6 2v-6l4-1 4 1 12-2 4-2 1-3 7-1 1 2-3 1-1 2-8 4-1 3 7 10 5 3h6l3 1 3-2v-6l-3-5v-2l7-1h7l5-2 1-10 5-3v-5l-1-4 5-1 6-1-1-2-7-1v-2l-5-1zm20 28m-3 1m-60 2 1 5 4-1-1-3zm67 1-2 2h4v-2zm-5 1m-124 2-14 8-10 8 2 1-5 6h2l-3 5-8 6-4 8-1 10 1 7 8-1 8-4v-3l-4 1-1 2-4 1 1-5 8-5 6-4-2 7 5-1 8-6 2-2-11-3h-2l1-2 11 1 8 1 5-2-4-4-9-5-2 1 1 3-7 1 3-5v-2l4-1 1-7 4-2 5 2h4l1-2 5 1 5 2 1-7-6-5h-2l-1-4zm65 9 2 4 3 5 9 1-2-3h-2l-1-3-8-4zm-11 3 1 2h4v-2zm-8 2v2l2-1zm-38 2 2 5 4 1-5-6zm28 0m12 0 3 3 2-2zm-48 3v3l3 1v-3zm72 2m2 1 4 2 4-2zm-102 1m31 0m86 1m-73 0-4 2 1 3 7-1-1-3zm16 1 4 1zm6 0m2 1 4 1zm8 0m-28 5-5 2 3 2 18 9 5 1 2-5v-3h2v-3l3-1-1 2-1 18 3 2 10-1 10-4 8-1h8v-11l-4-2 2-2h-9l-12 2-7-1-6-3-10-1zm110 0-2 2 6 3 2-2 6-1v-2zm-119 4-6 3v2l16 8 11 8 6 5 4-1v-4l-3-1-2-4-8-7-12-6-4-3zm76 4v11l4 1 6-1h11l3 3 2 5 2-3-5-10-7-5zm-89 3-8 5 4 2 4 1h11l3-3-8-4zm154 3v3zm1 33 1 16 4 17h1l-1-13-4-20zm6 33 1 7 2 3-1-7zm-50 10-1 5 3-2-1-3zm53 2 2 9h3l-2-5zm5 9m-34 30m50 14 1 4zm1 4 1 5 2 2-1-5zm3 7 1 2z" fill="#EFB343"/>
<path transform="translate(181,234)" d="m0 0 3 1v2l-4 4-8 4 2 5 4 6 5 3h6l3 1 2-1v-6l-3-5 1-3 7-1h7l6-1 1-8 2 1v3l3 1-2 1-2 4-10 6-2 3 1 6 1 5 3 8 6 4 16 8 4 5 4-1 1 3 5-1 2 3 1 18 4 21 3 19 1 2-3-25-4-18v-14l3-1 2-5 5-2 1-5-3-1 6-7-6-1-11-15-4-4-5-2-1 2-6-10-1-4h5l1 6 5 3 10 3 17-6 4-4 7-5 2 1-3 4h-2v2l-4 4 9-2 3 2-1 2h-13-3l-10 4-1 3 7 8 4 6h13l12-11 2-10-2-1 4-8v-9h4v11l-2 10 11-4 9-1h7l2-1v2l7-4-2-1-4 1v-2l-2-1 4-1 12 2 6 3h1v6l3 1-8 4-12 11-4 3h-2l-1 3-3-1h-8l-7-1-16 1-7 2-4 3-6 1-7 4-1 2 11-2 13 1 10 2h11l9-3 7-5 4-2 9-1 11-6-1-10 5 1 1 6h11l5-4 3 1-4 2-2 4-12 2-21 10-2 1v-2l-8 3-11 8-1-2-9 1h-14l-15 2-7 2 1 6-6 10 3 1 3 15 1 7 6 8 4 9 3 6-2 1 6 9 8 8 7 16 4 16v9l-1 2 1 7v5l-2 1 1 3 5 3v2l-22-1 3 3v2l-7 2-8 1-28 2h-7v-2l-19 3h-5l1-4 2-2v-8l-2 7-3 2h-9l-5-1h-25l-9 2-2-1v-8l8-13 5-12 5-18 2-3h3l1-5 6-11 7-10 5-5 3-9v-16l4-7v-12l-1-6-2-1v-2l-15 3 1 13-3 3h-5v-4l-2-1v-2h2v-6l-2 1-1 9 3 4-1 15 2 5-1 6-2 2-5-1-1-7 1-5 1-32-8-7-7 1-17 4-4 1-2 2 2 1v10l-1 2h-3v2l3 1v14l-1 11 1 1v6l-2 3-4-1-2-2v-34l2-10-9-3-12-10-2-1h-6l3 1-1 3v9l-1 12 2 4-1 6-4 3-4-5 2-31-8-1-20-3-2 5-8 5-9 2h-5l-2-3-1-6v-9l4-10 8-8 7-4h2l-1 4-9 7-4 8-1 10v7l10-3 5-2 1-3-3 1-2 3h-4v-5l9-6 4-3h2l-1 5-1 2 8-4 5-5-11-3 1-3 11 1 8 1 3-2-9-6-3-1v3l-8 2 3-6 6-3 1-7 4 1h7l3 2 3 11 4 1 5-2-2-4-3-1-6-7 1-3 9 8 3 3 9 3 20 1-5-6-8-2-1-5-10-4-1-3 9 1 2 1h8l5-2-9-6 1-3 6-1 6 3-1-6 5-2 4 1 12-2 4-1 1-4zm-23 10 1 5 4-1-1-3zm3 13 2 4 3 5 9 1-2-3h-2l-1-3-8-4zm-11 3 1 2h4v-2zm-8 2v2l2-1zm2 2 3 3 2-2zm-48 3v3l3 1v-3zm72 2m2 1 4 2 4-2zm-71 1m86 1m-69 7-5 2 3 2 18 9 5 1 2-5v-3h2v-3l3-1-1 2-1 18 3 2 10-1 10-4 8-1h8v-11l-4-2 2-2h-9l-12 2-7-1-6-3-10-1zm-9 4-6 3v2l16 8 11 8 6 5 4-1v-4l-3-1-2-4-8-7-12-6-4-3zm76 4v11l4 1 6-1h11l3 3 2 5 2-3-5-10-7-5zm-89 3-8 5 4 2 4 1h11l3-3-8-4zm161 69 1 7 2 3-1-7zm-50 10-1 5 3-2-1-3zm53 2 2 9h3l-2-5zm5 9m-34 30m50 14 1 4zm1 4 1 5 2 2-1-5zm3 7 1 2z" fill="#272D53"/>
<path transform="translate(1683,188)" d="m0 0h8l6 4 8 8 8 7 19 19 8 7 28 28 8 7 1 1v-77l6-1h28l8 1v158l-2 1h-12l-17-16-37-37-8-7-20-20-2-1-1 77h-39l-1-1-1-156z" fill="#22284E"/>
<path transform="translate(1380,191)" d="m0 0h50l16 1 14 4 11 7 7 7 5 8 4 13v14l-4 12-4 5 1 3 10 6 8 9 5 12 1 11-3 14-5 10-11 11-12 6-8 2-12 1h-71l-4-1-1-32v-122zm37 34-1 1v27l5 1h13l7-3 4-4 2-9-2-6-5-5-5-2zm0 60-1 1v28h37l6-3 4-5 1-8-3-7-5-4-3-1-11-1z" fill="#232950"/>
<path transform="translate(726,197)" d="m0 0h65l15 2 14 5 11 7 7 7 7 12 3 10v23l-5 13-7 10-9 8-2 1 1 4 11 15 12 17 13 18 2 4h-44l-5-4-26-36-5-7-17-1 1 47-1 1h-41zm42 36-1 11v24l1 2h26l9-6 3-6v-14l-4-6-8-5z" fill="#22284F"/>
<path transform="translate(876,197)" d="m0 0h40l1 2v95l2 8 4 8 7 6 8 3h13l8-3 7-5 5-9 2-14v-91h41l1 4-1 95-3 14-7 16-7 9-8 8-14 8-13 4-9 1h-17l-16-3-12-5-9-6-8-8-9-14-4-10-3-15v-97z" fill="#232950"/>
<path transform="translate(1582,188)" d="m0 0h8l3 1 5 10 11 26 12 27 18 40 13 30 10 22 1 3h-44l-5-12h-57l-3 10-3 2h-42l2-6 13-30 13-29 14-31 9-21 12-27 7-14zm3 79-4 9-9 25v2h26l1-2-12-34z" fill="#22284E"/>
<path transform="translate(1089,194)" d="m0 0h11l13 2 11 4 13 9 8 10 3 7-10 9-15 11-4-2-9-9-10-4h-10l-6 3-2 4 1 7 4 4 23 10 19 9 12 9 6 8 4 8 2 11-1 15-5 13-6 8-8 7-13 6-10 2h-29l-16-4-10-5-10-8-8-9-3-5v-3l20-16 4-3 5 1 7 8 11 7 12 3 11-1 5-3 2-5-1-8-9-6-30-14-12-7-8-7-7-10-3-9-1-5v-11l3-12 6-10 8-8 16-8z" fill="#23294F"/>
<path transform="translate(1854,191)" d="m0 0h31l5 1v64l-1 6h3l2-6 8-11 6-8 4 1 12 16 14 18 11 14 35 45 11 14 1 2h-47l-5-4-13-18-14-18-13-18-12-16v-2h-3l1 2 1 73-1 1-7 1h-30l-3-1v-155z" fill="#22284F"/>
<path transform="translate(234,196)" d="m0 0 1 4-1 10 4 2 9-1 4-1 10 4 3 5v2l6 1-3 1-1 5 10 4-4-4-1-4 10-2 12-2h5v-1h10l9 3 1 1 6 1v2l5 2 2-1 4 4 1 2h6l4 2v2h2l3 5 2 3h5l4 4 1 2 4 4-3 3 4 1 6 5-1 4 4 2 2 2 4 5v2l-3-1v6h-2l-1 2 3-1 1 2-2 1-2 4-4-1-3-2-1-1-1 4h-5l1-4h-2l-1 3-1-3h-4l1 2h-5l-3 3-7-2-1-3 3-3-7 1-4 1-1-4 15-8 7-3 12-2 5-5-4 2-3 2h-11l-1-1v-6l-3 1v3 5l-10 6-2 1-9 1-10 6-6 3-10 1-13-1-10-2-16 1 2-4 8-4 6-1 4-3 5-1 17-1 7 1h7l3 1 4-4 16-14 6-2-2-1-1-5-6-3-13-2v2l4-1 2 2-5 4-4-1-1 1h-11l-13 4h-3v-8l1-2 1-11h-4l1 2v7l-4 8 1 1v7l-3 5-11 10h-13l-7-9-5-6 2-4 13-5v2l7-1 6 1v-2l-3-1-8 1 2-4h2v-2l4-4-5 3-4 3h-2l-1 3-10 4-8 2-12-4-4-5v-3l-3 1 5 9 9 3 9 12 4 6 6 2-2 4-3 3 2 1-1 5-5 3-2 5h-3l1 14 5 23-1 4-3-8h-1l-3-18-1-18-2-2-2 1-3-3-3-1-1 2-4-5-12-6-5-3-7-5-4-18 4-5 9-5 3-4-2-1-1-2-2 6h-1v-10l4-3h2l-2-9 2-2h5l4-1-7-2v-2h-22l-1 3-19 6-9 3-6 4-9 3-10-2-21 6-6 2v2l6 2 3 4-1 5 12 6-2 1-6-2h-4v2l9 2 3 3v3l7 2 6 7-1 1-20-1-9-3-5-5-7-6 2 4 3 3v2l4 1 1 4-5-3-3 2v2l6-1-3 3-4-1-3-8 1-2h2l-3-3h-3-9l-1-1-2 7-5 2v-2l4-1v-7l5-3 9 3 1-3 5 1 4 2 1-1v-5l-5-4-2-1-1-3h-10l-14 8-9 7v4l-5 4h-4l-1-4 4-5 14-11 13-7 15-1 2-1-3-3v-2l12-6 17-5h18l8-4 5-3 10-2 5-5 15-4 10-2h12l11 2zm-13 45m-3 1m7 3-2 2h4v-2zm-5 1m-88 18m-4 9 4 1zm6 0m2 1 4 1zm8 0m82 5-2 2 6 3 2-2 6-1v-2zm22 14v3z" fill="#F6F6F7"/>
<path transform="translate(574,197)" d="m0 0h134v36l-7 1h-39v119h-42v-120l-29 1h-17z" fill="#272D53"/>
<path transform="translate(1163,197)" d="m0 0h134l1 1v35h-36l-11-1v120l-1 1h-39l-1-1v-119l-20 1h-27l-1-19v-13z" fill="#252B51"/>
<path transform="translate(69,271)" d="m0 0h2l-1 4-9 7-4 8-1 10v7l10-3 5-2 1-3-3 1-2 3h-4v-5l9-6 4-3h2l-1 5-1 2 8-4 5-5-11-3 1-3 11 1 8 1 3-2-2-3 12 3 15 7 6 3 5 2 1-5 1-3h2l-1-3 4-1-1 20 2 1 10-1 10-4 8-1 8 1v-11h5l-3 1v11l3-1h4 14l4 4 1 4h3l-1 5-2-1v-2l-15 3 1 13-3 3h-5v-4l-2-1v-2h2v-6l-2 1-1 9 3 4-1 15 2 5-1 6-2 2-5-1-1-7 1-5 1-32-8-7-7 1-17 4-4 1-2 2 2 1v10l-1 2h-3v2l3 1v14l-1 11 1 1v6l-2 3-4-1-2-2v-34l2-10-9-3-12-10-2-1h-6l3 1-1 3v9l-1 12 2 4-1 6-4 3-4-5 2-31-8-1-20-3-2 5-8 5-9 2h-5l-2-3-1-6v-9l4-10 8-8zm38 12-6 3v2l16 8 11 8 6 5 4-1v-4l-3-1-2-4-8-7-12-6-4-3zm-13 7-8 5 4 2 4 1h11l3-3-8-4z" fill="#4A4F6E"/>
<path transform="translate(1943,191)" d="m0 0h43v4l-13 18-12 17-14 20-4 6-4-2-8-10-10-13-4-6 12-17 10-14z" fill="#F0B64A"/>
<path transform="translate(204,208)" d="m0 0 10 1-2 1v2l-5 1-10 1-1 3-19 6-9 3-6 4-9 3-10-2-21 6-6 2v2l6 2 3 4-1 5 12 6-2 1-6-2h-4v2l9 2 3 3v3l7 2 6 7-1 1-20-1-9-3-5-5-7-6 2 4 3 3v2l4 1 1 4-5-3-3 2v2l6-1-3 3-4-1-3-8 1-2h2l-3-3h-3-9l-1-1-2 7-5 2v-2l4-1v-7l5-3 9 3 1-3 5 1 4 2 1-1v-5l-5-4-2-1-1-3h-10l-14 8-9 7v4l-5 4h-4l-1-4 4-5 14-11 13-7 15-1 2-1-3-3v-2l12-6 17-5h18l8-4 5-3 10-2 5-5 15-4zm-72 56m-4 9 4 1zm6 0m2 1 4 1z" fill="#F1F2F4"/>
<path transform="translate(69,271)" d="m0 0h2l-1 4-9 7-4 8-1 10v7l10-3 5-2 1-3-3 1-2 3h-4v-5l9-6 4-3h2l-1 5-1 2 8-4 5-4 3-1v2l4 1-9 5 7 2 10 1-3 2 11 2-1 3v9l-1 12 2 4-1 6-4 3-4-5 2-31-8-1-20-3-2 5-8 5-9 2h-5l-2-3-1-6v-9l4-10 8-8z" fill="#F8F8F9"/>
<path transform="translate(266,250)" d="m0 0 1 2 7-1 8 1v2h4v-2h5v7l-3 5-11 10h-13l-7-9-5-6 2-4z" fill="#EEB54A"/>
<path transform="translate(304,273)" d="m0 0 8 1h7l5 3v4l-11 7-11 1-13-1-10-2-16 1 2-4 8-4 6-1 4-3 5-1z" fill="#F1B952"/>
<path transform="translate(235,254)" d="m0 0 5 1 5 5 10 14 6 2-2 4-3 3 2 1-1 5-3 2-5-1-4-5v-6l-2 4h-2l-1-6 1-3-4-9-2-7z" fill="#F1BB57"/>
<path transform="translate(316,254)" d="m0 0 12 1 8 3-2 4-8 6-5 2-12 1-1-1-1-7-2 1-3-3v-3l6-3z" fill="#FEFEFE"/>
<path transform="translate(91,287)" d="m0 0 1 2 4 1-9 5 7 2 10 1-3 2 11 2-1 3v9l-1 12 2 4-1 6-4 3-4-5 2-31-8-1-11-2h-10l-2 1 1-4 9-5 5-4z" fill="#FEFEFE"/>
<path transform="translate(180,308)" d="m0 0h18l-4 2 1 13-3 3h-5v-4l-2-1v-2h2v-6l-2 1-1 9 3 4-1 15 2 5-1 6-2 2-5-1-1-7 1-5 1-32z" fill="#FEFEFE"/>
<path transform="translate(141,311)" d="m0 0 4 1v10l-1 2h-3v2l3 1v14l-1 11 1 1v6l-2 3-4-1-2-2v-34l2-10-2-2z" fill="#FEFEFE"/>
<path transform="translate(147,254)" d="m0 0 8 1 6 13v3l4 2 2 5-8 3-6-1-1-5-5-5v-2l-4-2-7-6v-1l10-2zm3 6 1 2h4v-2zm-8 2v2l2-1zm2 2 3 3 2-2z" fill="#FAFAFA"/>
<path transform="translate(99,278)" d="m0 0 12 3 15 7 6 3 5 2 1-5 1-3h2l-1-3 4-1-1 20 2 1 10-1 10-4 4 1-13 5-4 1h-9l-8-5-5-7-18-6-5-2-6 2v2l5 1 2 2-10-2-1-3-7-1 1 2-13-3 1-3 11 1 8 1 3-2z" fill="#FEFEFE"/>
<path transform="translate(91,263)" d="m0 0 4 1h7l3 2 3 11 5 3-4 1-12-3-8-4v3l-8 2 3-6 6-3zm5 4v3l3 1v-3z" fill="#303559"/>
<path transform="translate(181,234)" d="m0 0 3 1v2l-4 4-8 4 2 5 4 6 5 3h6l3 1 2-1v-6l-3-5 1-3 3 1 3 12 1 8-1 2-4-1-17-9-7-9-7-7v-1l12-2 1-4z" fill="#FEFEFE"/>
<path transform="translate(286,296)" d="m0 0h1l1 32 5 4-6-1 2 11 2 5-1 7-4 4h-2l-1-3v-11l1-12 2-4-3-1 3-1z" fill="#FEFEFE"/>
<path transform="translate(231,378)" d="m0 0 2 3 1 4h-3l-2 5v13l6 16 4 23v5l-3-1-3-20-3-10-4-11-1-12 2-6z" fill="#FEFEFE"/>
<path transform="translate(204,208)" d="m0 0 10 1-2 1v2l-5 1-10 1-1 3-13 4-3-1 1-5 5-3z" fill="#D8D9DF"/>
<path transform="translate(283,275)" d="m0 0h5v7l-2 5-12-1-11 1 2-4 8-4 6-1z" fill="#F3C671"/>
<path transform="translate(91,287)" d="m0 0 1 2 4 1-9 5 7 2 10 1-3 2-4 2-11-2h-10l-2 1 1-4 9-5 5-4z" fill="#A7A9B9"/>
<path transform="translate(99,278)" d="m0 0 12 3 4 4v2l-4-2-4-1-6 2v2l5 1 2 2-10-2-1-3-7-1 1 2-13-3 1-3 11 1 8 1 3-2z" fill="#F5F5F6"/>
<path transform="translate(260,380)" d="m0 0 5 1 5 10 2 7v14l-2 14-1 15-2-1v-13l2-15v-13l-5-15z" fill="#FEFEFE"/>
<path transform="translate(93,260)" d="m0 0 10 3 1-3 3 1 1 4 4 4v2l4 1 1 4-5-3-3 2v2l6-1-3 3-4-1-3-8 1-2h2l-3-3h-3-9l-1-1-2 7-5 2v-2l4-1v-7z" fill="#FEFEFE"/>
<path transform="translate(153,241)" d="m0 0 6 1h4l5 10h-12l-2-9h-2l1 8-5-1-7-3 4-1 6 3-1-6zm5 3 1 5 4-1-1-3z" fill="#FEFEFE"/>
<path transform="translate(312,274)" d="m0 0h7l5 3v4l-11 7h-1z" fill="#F0B74C"/>
<path transform="translate(297,259)" d="m0 0 4 1 6 9-1 2-17-1 2-4z" fill="#F3C46D"/>
<path transform="translate(301,340)" d="m0 0h2l1 12 3 9-1 4-6 1-1-2 1-22z" fill="#FEFEFE"/>
<path transform="translate(192,245)" d="m0 0 3 1 3 12 1 8-1 2-4-1-10-5v-2l5-1 3 1 2-1v-6l-3-5z" fill="#FEFEFE"/>
<path transform="translate(183,271)" d="m0 0 5 1 4 4h4l-1 3h-18l-8-1 1-3 9-1 4-1z" fill="#FEFEFE"/>
<path transform="translate(160,256)" d="m0 0 5 5 1 4 10 1 4 4v2l-3 1h-8l-4-4-6-12zm8 13m2 1 4 2 4-2z" fill="#FEFEFE"/>
<path transform="translate(286,343)" d="m0 0h2v2h2l1 7-3 5-4 1-1-3v-7z" fill="#4D5271"/>
<path transform="translate(183,341)" d="m0 0 4 4 1 5-3 5-5-1-1-7z" fill="#424768"/>
<path transform="translate(106,325)" d="m0 0 4 1 2 4-1 6-4 3-4-5 1-5z" fill="#5D617E"/>
<path transform="translate(190,313)" d="m0 0h4l1 3v7l-3 3h-5l1-11z" fill="#565A78"/>
<path transform="translate(223,413)" d="m0 0 3 3 3 9 1 8-2-1 1 16h-2l-3-25z" fill="#FEFEFE"/>
<path transform="translate(335,247)" d="m0 0 6 1 2 2-1 4-1 1h-8l-4-3z" fill="#FEFEFE"/>
<path transform="translate(148,318)" d="m0 0h2l3 10-1 6-4 1-2-4 1-10z" fill="#FEFEFE"/>
<path transform="translate(310,325)" d="m0 0 3 1 2 3v6l-2 3-4-1-1-1v-9z" fill="#20264D"/>
<path transform="translate(140,349)" d="m0 0 4 4v6l-2 3-4-1-1-9z" fill="#515674"/>
<path transform="translate(76,289)" d="m0 0h2v3l-6 1zm-5 4m-1 1m-2 1h5l1 3-5 2-2 3h-4v-5z" fill="#C2C3CE"/>
<path transform="translate(91,287)" d="m0 0 1 2 4 1-9 5 5 2-4 1-9-2 10-8z" fill="#FEFEFE"/>
<path transform="translate(181,234)" d="m0 0 3 1v2l-4 4-8 4-4-1 6-4 2-5z" fill="#999CAE"/>
<path transform="translate(181,286)" d="m0 0h5l-3 1v11l3-1 3 2-1 3-9-3-9-1 1-2 10 1z" fill="#FEFEFE"/>
<path transform="translate(235,224)" d="m0 0 12 2v-2h3l1 6-9-2-2 1h-8l-1-2 4-2z" fill="#20264D"/>
<path transform="translate(87,284)" d="m0 0 13 1-2 3 8 3v1l-9-1-5-2-2-3z" fill="#31365A"/>
<path transform="translate(267,223)" d="m0 0h4v3l2 1v3l4 1-1 2-13-5 4-1z" fill="#242A50"/>
<path transform="translate(301,355)" d="m0 0h2l2 3v5l-4 2-2-1v-6z" fill="#3C4264"/>
<path transform="translate(196,244)" d="m0 0h13l-10 8z" fill="#FEFEFE"/>
<path transform="translate(79,281)" d="m0 0h6l2 1v3l4 1-2 1-11-3z" fill="#E0E1E6"/>
<path transform="translate(379,277)" d="m0 0 5 3-1 4-1 1 2 2-3 1-2-2h-2l1-3 1-1z" fill="#20264D"/>
<path transform="translate(297,418)" d="m0 0 3 4 3 7 1 2-4 3-3-11z" fill="#FEFEFE"/>
<path transform="translate(232,359)" d="m0 0h1v7l-3 10-2 2 1-9z" fill="#FEFEFE"/>
<path transform="translate(291,266)" d="m0 0 2 1v2l13-2 1 3-3 1-15-1z" fill="#FEFEFE"/>
<path transform="translate(93,266)" d="m0 0 7 1 3 5v2l-5-1-5-4zm3 1v3l3 1v-3z" fill="#FEFEFE"/>
<path transform="translate(203,373)" d="m0 0h3l-1 7-4 7-1-2z" fill="#FEFEFE"/>
<path transform="translate(332,300)" d="m0 0h3l1 4-1 5h-3l-1-7z" fill="#20264D"/>
<path transform="translate(324,291)" d="m0 0h2l1 7-1 2-4-2 1-6z" fill="#20264D"/>
<path transform="translate(66,265)" d="m0 0 1 3h4l-3 4h-4l-1-4z" fill="#FEFEFE"/>
<path transform="translate(149,324)" d="m0 0 2 2v6l-3 1-1-6z" fill="#20264D"/>
<path transform="translate(1946,248)" d="m0 0 1 2-4 6-4-2-3-3 1-2 3 3 4-1z" fill="#FEFEFE"/>
<path transform="translate(241,275)" d="m0 0h3v7l-3 1-1-6z" fill="#20264D"/>
<path transform="translate(84,273)" d="m0 0h3l2 1v3l-8 2z" fill="#FEFEFE"/>
<path transform="translate(182,257)" d="m0 0h5l-4 2z" fill="#FEFEFE"/>
<path transform="translate(303,339)" d="m0 0" fill="#FEFEFE"/>
<path transform="translate(283,329)" d="m0 0" fill="#FEFEFE"/>
<path transform="translate(282,328)" d="m0 0" fill="#FEFEFE"/>
<path transform="translate(281,327)" d="m0 0" fill="#FEFEFE"/>
<path transform="translate(143,325)" d="m0 0" fill="#FEFEFE"/>
</svg>
